<svg width="21" height="20" viewBox="0 0 21 20" fill="none" xmlns="http://www.w3.org/2000/svg">
  <path d="M14.2652 9.74317C14.3322 9.81013 14.3657 9.89569 14.3657 9.99986C14.3657 10.104 14.3322 10.1896 14.2652 10.2566L10.6938 13.828C10.6268 13.8949 10.5413 13.9284 10.4371 13.9284C10.3404 13.9284 10.2567 13.8931 10.186 13.8224C10.1153 13.7517 10.08 13.668 10.08 13.5713V11.4284H6.1514C6.05468 11.4284 5.97097 11.3931 5.90029 11.3224C5.8296 11.2517 5.79426 11.168 5.79426 11.0713V8.92843C5.79426 8.83171 5.8296 8.748 5.90029 8.67732C5.97097 8.60663 6.05468 8.57129 6.1514 8.57129H10.08V6.42843C10.08 6.32427 10.1135 6.2387 10.1804 6.17174C10.2474 6.10477 10.3329 6.07129 10.4371 6.07129C10.5264 6.07129 10.6157 6.10849 10.705 6.1829L14.2652 9.74317ZM15.3367 13.0467C15.3367 13.0467 15.4725 12.8142 15.744 12.3492C16.0156 11.8842 16.1514 11.1011 16.1514 9.99986C16.1514 8.89867 15.8798 7.88305 15.3367 6.95299C14.7935 6.02293 14.0569 5.28632 13.1268 4.74317C12.1968 4.20001 11.1812 3.92843 10.08 3.92843C8.97878 3.92843 7.96316 4.20001 7.0331 4.74317C6.10304 5.28632 5.36643 6.02293 4.82328 6.95299C4.28012 7.88305 4.00854 8.89867 4.00854 9.99986C4.00854 11.1011 4.28012 12.1167 4.82328 13.0467C5.36643 13.9768 6.10304 14.7134 7.0331 15.2566C7.96316 15.7997 8.97878 16.0713 10.08 16.0713C11.1812 16.0713 12.1968 15.7997 13.1268 15.2566C14.0569 14.7134 14.7935 13.9768 15.3367 13.0467ZM17.5018 5.69741C17.5018 5.69741 17.6934 6.02572 18.0766 6.68234C18.4598 7.33896 18.6514 8.4448 18.6514 9.99986C18.6514 11.5549 18.2682 12.9891 17.5018 14.3023C16.7355 15.6156 15.6957 16.6554 14.3824 17.4217C13.0692 18.1881 11.635 18.5713 10.08 18.5713C8.52491 18.5713 7.09076 18.1881 5.77752 17.4217C4.46427 16.6554 3.42447 15.6156 2.6581 14.3023C1.89173 12.9891 1.50854 11.5549 1.50854 9.99986C1.50854 8.4448 1.89173 7.01065 2.6581 5.69741C3.42447 4.38416 4.46427 3.34436 5.77752 2.57799C7.09076 1.81162 8.52491 1.42843 10.08 1.42843C11.635 1.42843 13.0692 1.81162 14.3824 2.57799C15.6957 3.34436 16.7355 4.38416 17.5018 5.69741Z" fill="#FFC925"/>
</svg>