<svg width="35" height="35" viewBox="0 0 35 35" fill="none" xmlns="http://www.w3.org/2000/svg">
  <path d="M34.405 12.3196H32.095C31.9317 12.3196 31.7917 12.3721 31.675 12.4771C31.5583 12.5821 31.5 12.7279 31.5 12.9146V13.4746H25.655V11.1646C25.655 10.9779 25.6025 10.8321 25.4975 10.7271C25.3925 10.6221 25.2583 10.5696 25.095 10.5696H23.905V9.41461C24.955 9.46128 25.935 9.61294 26.845 9.86961C27.5217 10.1029 28.175 9.98628 28.805 9.51961C29.1083 9.30961 29.3417 9.04128 29.505 8.71461C29.6683 8.38794 29.75 8.04961 29.75 7.69961V5.91461C29.75 5.61128 29.68 5.31961 29.54 5.03961C29.4 4.75961 29.2133 4.53211 28.98 4.35711C28.7467 4.18211 28.4842 4.07128 28.1925 4.02461C27.9008 3.97794 27.6033 4.00128 27.3 4.09461L26.355 4.37461C24.3483 4.86461 22.33 4.86461 20.3 4.37461L19.32 4.09461C18.7133 3.90794 18.1417 4.00128 17.605 4.37461C17.395 4.56128 17.2258 4.79461 17.0975 5.07461C16.9692 5.35461 16.905 5.63461 16.905 5.91461V7.69961C16.905 8.04961 16.9867 8.38794 17.15 8.71461C17.3133 9.04128 17.5467 9.30961 17.85 9.51961C18.3167 9.82294 18.76 9.97461 19.18 9.97461C19.39 9.97461 19.6117 9.93961 19.845 9.86961C20.7083 9.61294 21.6767 9.46128 22.75 9.41461V10.5696H21.595C21.4317 10.5696 21.2917 10.6221 21.175 10.7271C21.0583 10.8321 21 10.9779 21 11.1646V13.4746H15.75C13.1833 13.4746 10.7917 14.1163 8.575 15.3996C6.42833 16.6129 4.69 18.2813 3.36 20.4046C2.00667 22.5746 1.27167 24.9313 1.155 27.4746H0.595C0.431667 27.4746 0.291667 27.5271 0.175 27.6321C0.0583333 27.7371 0 27.8829 0 28.0696V30.4146C0 30.5779 0.0525 30.7121 0.1575 30.8171C0.2625 30.9221 0.408333 30.9746 0.595 30.9746H9.905C10.0917 30.9746 10.2375 30.9221 10.3425 30.8171C10.4475 30.7121 10.5 30.5779 10.5 30.4146V28.0696C10.5 27.8829 10.4475 27.7371 10.3425 27.6321C10.2375 27.5271 10.0917 27.4746 9.905 27.4746H9.38C9.47333 26.4013 9.8175 25.4213 10.4125 24.5346C11.0075 23.6479 11.7717 22.9479 12.705 22.4346C13.6383 21.9213 14.6533 21.6646 15.75 21.6646H31.5V22.2246C31.5 22.3879 31.5583 22.5279 31.675 22.6446C31.7917 22.7613 31.9317 22.8196 32.095 22.8196H34.405C34.5917 22.8196 34.7375 22.7613 34.8425 22.6446C34.9475 22.5279 35 22.3879 35 22.2246V12.9146C35 12.7513 34.9417 12.6113 34.825 12.4946C34.7083 12.3779 34.5683 12.3196 34.405 12.3196ZM5.53 21.3496C6.27667 20.3229 7.035 19.4713 7.805 18.7946C7.92167 18.6779 8.06167 18.6313 8.225 18.6546C8.38833 18.6779 8.52833 18.7479 8.645 18.8646C8.76167 18.9813 8.81417 19.1096 8.8025 19.2496C8.79083 19.3896 8.715 19.5296 8.575 19.6696C7.78167 20.3696 7.105 21.1513 6.545 22.0146C6.35833 22.1546 6.18917 22.2246 6.0375 22.2246C5.88583 22.2246 5.775 22.1896 5.705 22.1196C5.565 22.0263 5.4775 21.9038 5.4425 21.7521C5.4075 21.6004 5.43667 21.4663 5.53 21.3496ZM3.745 25.6196C3.83833 25.0363 4.01333 24.4179 4.27 23.7646C4.31667 23.6013 4.41583 23.4846 4.5675 23.4146C4.71917 23.3446 4.87083 23.3388 5.0225 23.3971C5.17417 23.4554 5.285 23.5604 5.355 23.7121C5.425 23.8638 5.425 24.0096 5.355 24.1496C5.145 24.7796 4.99333 25.3279 4.9 25.7946C4.83 26.0979 4.63167 26.2496 4.305 26.2496H4.2C4.06 26.2496 3.9375 26.1796 3.8325 26.0396C3.7275 25.8996 3.69833 25.7596 3.745 25.6196ZM9.345 29.8196H1.155V28.6646H9.345V29.8196ZM22.155 11.7246H24.5V13.4746H22.155V11.7246ZM16.905 16.9746H15.75C14.0233 16.9746 12.3667 17.3713 10.78 18.1646C10.7567 18.1879 10.6633 18.1996 10.5 18.1996C10.2667 18.1996 10.0917 18.1063 9.975 17.9196C9.92833 17.7563 9.9225 17.6046 9.9575 17.4646C9.9925 17.3246 10.08 17.2196 10.22 17.1496C11.9 16.3096 13.7433 15.8896 15.75 15.8896H16.905C17.0917 15.8896 17.2375 15.9421 17.3425 16.0471C17.4475 16.1521 17.5 16.2863 17.5 16.4496C17.5 16.6129 17.4475 16.7413 17.3425 16.8346C17.2375 16.9279 17.0917 16.9746 16.905 16.9746ZM31.5 16.9746H20.405C20.2417 16.9746 20.1075 16.9221 20.0025 16.8171C19.8975 16.7121 19.845 16.5721 19.845 16.3971C19.845 16.2221 19.8975 16.0821 20.0025 15.9771C20.1075 15.8721 20.2417 15.8196 20.405 15.8196H31.5V16.9746ZM33.845 21.6646H32.655V13.4746H33.845V21.6646Z" fill="white"/>
</svg>