<svg width="45" height="45" viewBox="0 0 45 45" fill="none" xmlns="http://www.w3.org/2000/svg">
  <path d="M36.3375 8.99973C34.7175 8.57973 32.8575 8.34723 30.7575 8.30223C28.6575 8.25723 26.7825 8.38473 25.1325 8.68472L22.3425 9.17973L21.9375 9.22473V20.1147L24.0975 20.4747C25.1475 20.7447 26.4375 20.9247 27.9675 21.0147L28.8675 25.2447C28.9575 25.5447 29.1525 25.6947 29.4525 25.6947H30.6225V29.1597H36.9675V25.0647L36.6525 20.2947C37.6125 19.9647 38.3925 19.3947 38.9925 18.5847C39.5925 17.7747 39.8925 16.8597 39.8925 15.8397V13.5447C39.8925 12.4647 39.5625 11.4972 38.9025 10.6422C38.2425 9.78723 37.3875 9.23973 36.3375 8.99973ZM30.6225 24.5247H29.9025L29.1375 21.0597H30.6225V24.5247ZM35.2575 15.2547H31.7475C31.5975 15.2547 31.47 15.2022 31.365 15.0972C31.26 14.9922 31.2075 14.8572 31.2075 14.6922C31.2075 14.5272 31.26 14.3922 31.365 14.2872C31.47 14.1822 31.5975 14.1297 31.7475 14.1297H35.2575C35.4075 14.1297 35.5425 14.1822 35.6625 14.2872C35.7825 14.3922 35.8425 14.5197 35.8425 14.6697C35.8425 14.8197 35.7825 14.9547 35.6625 15.0747C35.5425 15.1947 35.4075 15.2547 35.2575 15.2547ZM35.2575 12.9597H31.7475C31.5975 12.9597 31.47 12.8997 31.365 12.7797C31.26 12.6597 31.2075 12.5247 31.2075 12.3747C31.2075 12.2247 31.26 12.0897 31.365 11.9697C31.47 11.8497 31.5975 11.7897 31.7475 11.7897H35.2575C35.4075 11.7897 35.5425 11.8497 35.6625 11.9697C35.7825 12.0897 35.8425 12.2247 35.8425 12.3747C35.8425 12.5247 35.7825 12.6597 35.6625 12.7797C35.5425 12.8997 35.4075 12.9597 35.2575 12.9597ZM16.1775 11.7897H13.7925C13.1625 11.7897 12.6225 12.0147 12.1725 12.4647C11.7225 12.9147 11.4975 13.4697 11.4975 14.1297H5.69248C5.54248 14.1297 5.40748 14.1822 5.28748 14.2872C5.16748 14.3922 5.10748 14.5272 5.10748 14.6922C5.10748 14.8572 5.16748 14.9922 5.28748 15.0972C5.40748 15.2022 5.54248 15.2547 5.69248 15.2547H11.4975C11.4975 15.9147 11.7225 16.4697 12.1725 16.9197C12.6225 17.3697 13.1625 17.5947 13.7925 17.5947H16.1775C16.2975 18.1047 16.5525 18.5472 16.9425 18.9222C17.3325 19.2972 17.7975 19.5147 18.3375 19.5747L20.7675 19.9347V9.40473L18.3375 9.80972C17.7975 9.86973 17.3325 10.0872 16.9425 10.4622C16.5525 10.8372 16.2975 11.2797 16.1775 11.7897ZM16.1325 16.4247H13.7925C13.4625 16.4247 13.185 16.3122 12.96 16.0872C12.735 15.8622 12.6225 15.5847 12.6225 15.2547V14.1297C12.6225 13.7997 12.735 13.5222 12.96 13.2972C13.185 13.0722 13.4625 12.9597 13.7925 12.9597H16.1325V16.4247ZM29.8125 30.3297L27.4725 32.6697H38.0025L37.1925 30.3297H29.8125ZM27.1125 35.5497C27.1125 35.8497 27.2325 36.1197 27.4725 36.3597C27.7125 36.5997 27.9825 36.7197 28.2825 36.7197H36.9675C37.2975 36.7197 37.575 36.6072 37.8 36.3822C38.025 36.1572 38.1375 35.8797 38.1375 35.5497V33.7947H27.1125V35.5497Z" fill="#FFC925"/>
</svg>