<svg width="35" height="35" viewBox="0 0 35 35" fill="none" xmlns="http://www.w3.org/2000/svg">
  <path d="M30.905 4.13V1.75C30.905 1.26 30.7359 0.845833 30.3975 0.5075C30.0592 0.169167 29.645 0 29.155 0H4.09503C3.60503 0 3.19086 0.169167 2.85253 0.5075C2.5142 0.845833 2.34503 1.26 2.34503 1.75V4.095H1.75003C1.5867 4.095 1.4467 4.1475 1.33003 4.2525C1.21336 4.3575 1.15503 4.49167 1.15503 4.655C1.15503 4.81833 1.21336 4.95833 1.33003 5.075C1.4467 5.19167 1.5867 5.25 1.75003 5.25H2.34503V7.595C2.34503 7.96833 2.45586 8.30667 2.67753 8.61C2.8992 8.91333 3.17336 9.12333 3.50003 9.24V12.845C3.50003 13.475 3.72753 14.0175 4.18253 14.4725C4.63753 14.9275 5.1917 15.155 5.84503 15.155C6.26503 15.155 6.65003 15.05 7.00003 14.84V17.5C7.00003 18.1533 7.22753 18.7075 7.68253 19.1625C8.13753 19.6175 8.68586 19.845 9.32753 19.845C9.9692 19.845 10.5175 19.6175 10.9725 19.1625C11.4275 18.7075 11.655 18.1533 11.655 17.5V13.23C11.9584 13.3467 12.25 13.405 12.53 13.405C13.1134 13.405 13.6034 13.2067 14 12.81C14.3967 12.4133 14.595 11.935 14.595 11.375V9.345H29.155C29.645 9.345 30.0592 9.17 30.3975 8.82C30.7359 8.47 30.905 8.06167 30.905 7.595V5.32C31.4184 5.46 31.8384 5.74 32.165 6.16C32.4917 6.58 32.655 7.05833 32.655 7.595V9.905C32.655 10.465 32.48 10.9725 32.13 11.4275C31.78 11.8825 31.3367 12.1567 30.8 12.25C30.5667 12.2967 26.3317 12.6817 18.095 13.405C17.4417 13.405 16.8875 13.6325 16.4325 14.0875C15.9775 14.5425 15.75 15.0967 15.75 15.75V19.25H12.25C12.0634 19.25 11.9117 19.32 11.795 19.46C11.6784 19.6 11.6434 19.7633 11.69 19.95L12.25 22.855C12.2967 22.995 12.3725 23.1117 12.4775 23.205C12.5825 23.2983 12.705 23.345 12.845 23.345H13.405V28.595H15.75C15.9134 28.595 16.0534 28.6475 16.17 28.7525C16.2867 28.8575 16.345 28.9917 16.345 29.155C16.345 29.3183 16.2867 29.4583 16.17 29.575C16.0534 29.6917 15.9134 29.75 15.75 29.75H13.405V30.905H15.75C15.9134 30.905 16.0534 30.9633 16.17 31.08C16.2867 31.1967 16.345 31.3367 16.345 31.5C16.345 31.6633 16.2867 31.8033 16.17 31.92C16.0534 32.0367 15.9134 32.095 15.75 32.095H13.405C13.405 32.8883 13.6909 33.5708 14.2625 34.1425C14.8342 34.7142 15.5284 35 16.345 35C17.1617 35 17.85 34.7142 18.41 34.1425C18.97 33.5708 19.25 32.8883 19.25 32.095V23.345H19.845C19.985 23.345 20.1075 23.2983 20.2125 23.205C20.3175 23.1117 20.3817 22.995 20.405 22.855L21 19.95C21.0234 19.7867 20.9825 19.6292 20.8775 19.4775C20.7725 19.3258 20.615 19.25 20.405 19.25H16.905V15.75C16.905 15.4233 17.0217 15.1492 17.255 14.9275C17.4884 14.7058 17.78 14.595 18.13 14.595L25.165 13.965C28.875 13.6383 30.835 13.4517 31.045 13.405C31.8617 13.2183 32.5325 12.7983 33.0575 12.145C33.5825 11.4917 33.845 10.745 33.845 9.905V7.595C33.845 6.73167 33.565 5.97333 33.005 5.32C32.445 4.66667 31.745 4.27 30.905 4.13ZM11.795 2.555C11.8884 2.43833 12.0225 2.36833 12.1975 2.345C12.3725 2.32167 12.5184 2.3625 12.635 2.4675C12.7517 2.5725 12.8159 2.70667 12.8275 2.87C12.8392 3.03333 12.7984 3.17333 12.705 3.29L9.80003 6.79C9.66003 6.93 9.50836 7 9.34503 7C9.1817 7 9.04753 6.9475 8.94253 6.8425C8.83753 6.7375 8.7792 6.60917 8.76753 6.4575C8.75586 6.30583 8.7967 6.17167 8.89003 6.055L11.795 2.555ZM4.79503 6.055L7.73503 2.555C7.82836 2.43833 7.9567 2.36833 8.12003 2.345C8.28336 2.32167 8.42336 2.3625 8.54003 2.4675C8.6567 2.5725 8.72086 2.70667 8.73253 2.87C8.7442 3.03333 8.70336 3.17333 8.61003 3.29L5.70503 6.79C5.6117 6.93 5.4717 7 5.28503 7C5.09836 7 4.95253 6.9475 4.84753 6.8425C4.74253 6.7375 4.6842 6.60917 4.67253 6.4575C4.66086 6.30583 4.7017 6.17167 4.79503 6.055ZM13.405 11.375C13.405 11.6083 13.3234 11.8125 13.16 11.9875C12.9967 12.1625 12.7925 12.25 12.5475 12.25C12.3025 12.25 12.0925 12.1625 11.9175 11.9875C11.7425 11.8125 11.655 11.6083 11.655 11.375V10.5C11.655 10.3367 11.6025 10.1967 11.4975 10.08C11.3925 9.96333 11.2584 9.905 11.095 9.905C10.9317 9.905 10.7917 9.96333 10.675 10.08C10.5584 10.1967 10.5 10.3367 10.5 10.5V17.5C10.5 17.8033 10.3892 18.0717 10.1675 18.305C9.94586 18.5383 9.6717 18.655 9.34503 18.655C9.01836 18.655 8.73836 18.5442 8.50503 18.3225C8.2717 18.1008 8.15503 17.8267 8.15503 17.5V11.095C8.15503 10.9317 8.10253 10.7917 7.99753 10.675C7.89253 10.5583 7.75836 10.5 7.59503 10.5C7.4317 10.5 7.2917 10.5583 7.17503 10.675C7.05836 10.7917 7.00003 10.9317 7.00003 11.095V12.845C7.00003 13.1483 6.8892 13.4167 6.66753 13.65C6.44586 13.8833 6.1717 14 5.84503 14C5.51836 14 5.23836 13.8892 5.00503 13.6675C4.7717 13.4458 4.65503 13.1717 4.65503 12.845V9.345H13.405V11.375ZM13.86 6.79C13.7667 6.93 13.615 7 13.405 7C13.265 7 13.1425 6.9475 13.0375 6.8425C12.9325 6.7375 12.8742 6.60917 12.8625 6.4575C12.8509 6.30583 12.8917 6.17167 12.985 6.055L15.89 2.555C15.9834 2.43833 16.1117 2.36833 16.275 2.345C16.4384 2.32167 16.5784 2.35667 16.695 2.45C16.8117 2.54333 16.8817 2.6775 16.905 2.8525C16.9284 3.0275 16.8934 3.17333 16.8 3.29L13.86 6.79ZM17.955 6.79C17.8617 6.93 17.71 7 17.5 7C17.36 7 17.2317 6.9475 17.115 6.8425C16.9984 6.7375 16.9342 6.60917 16.9225 6.4575C16.9109 6.30583 16.9517 6.17167 17.045 6.055L19.985 2.555C20.0784 2.43833 20.2067 2.36833 20.37 2.345C20.5334 2.32167 20.6734 2.3625 20.79 2.4675C20.9067 2.5725 20.9709 2.70667 20.9825 2.87C20.9942 3.03333 20.9534 3.17333 20.86 3.29L17.955 6.79ZM21.595 7C21.4317 7 21.2975 6.9475 21.1925 6.8425C21.0875 6.7375 21.0292 6.60917 21.0175 6.4575C21.0059 6.30583 21.0467 6.17167 21.14 6.055L24.045 2.555C24.1384 2.43833 24.2725 2.36833 24.4475 2.345C24.6225 2.32167 24.7684 2.3625 24.885 2.4675C25.0017 2.5725 25.0659 2.70667 25.0775 2.87C25.0892 3.03333 25.0484 3.17333 24.955 3.29L22.05 6.79C21.91 6.93 21.7584 7 21.595 7ZM28.455 3.29L25.55 6.79C25.41 6.93 25.2584 7 25.095 7C24.9317 7 24.7975 6.9475 24.6925 6.8425C24.5875 6.7375 24.5292 6.60917 24.5175 6.4575C24.5059 6.30583 24.5467 6.17167 24.64 6.055L27.545 2.555C27.6384 2.43833 27.7725 2.36833 27.9475 2.345C28.1225 2.32167 28.2684 2.3625 28.385 2.4675C28.5017 2.5725 28.5659 2.70667 28.5775 2.87C28.5892 3.03333 28.5484 3.17333 28.455 3.29Z" fill="#FFC925"/>
</svg>