<svg width="36" height="35" viewBox="0 0 36 35" fill="none" xmlns="http://www.w3.org/2000/svg">
  <path d="M34.895 0.45504C34.7317 0.291706 34.5683 0.210037 34.405 0.210037H15.47L15.33 0.245037L15.155 0.210037H5.6C5.46 0.210037 5.3375 0.256706 5.2325 0.35004C5.1275 0.443371 5.06333 0.56004 5.04 0.700039L4.34 4.06004L2.94 10.92L1.505 17.815L0.104996 24.675C-0.0816708 25.6084 -0.0291708 26.5184 0.262496 27.405C0.554163 28.2917 1.05 29.05 1.75 29.68C2.45 30.31 3.26666 30.7184 4.2 30.905C4.55 30.975 4.91166 31.01 5.285 31.01C6.07833 31.01 6.83666 30.835 7.56 30.485C8.28333 30.135 8.89 29.6567 9.38 29.05C9.63666 29.9834 10.1208 30.7884 10.8325 31.465C11.5442 32.1417 12.39 32.585 13.37 32.795C13.72 32.865 14.0817 32.9 14.455 32.9C15.2483 32.9 16.0067 32.725 16.73 32.375C17.4533 32.025 18.06 31.5467 18.55 30.94C18.8067 31.8734 19.2908 32.6784 20.0025 33.355C20.7142 34.0317 21.56 34.475 22.54 34.685C22.89 34.755 23.2517 34.79 23.625 34.79C24.8383 34.79 25.935 34.3934 26.915 33.6C27.895 32.8067 28.5133 31.7917 28.77 30.555L30.17 23.695L31.57 16.8L33.005 9.94004L34.405 3.29004L35 0.945038C35.0467 0.758373 35.0117 0.595039 34.895 0.45504ZM24.255 1.40004C23.8583 2.33337 23.17 3.07421 22.19 3.62254C21.21 4.17087 20.23 4.34004 19.25 4.13004C18.55 3.99004 17.9258 3.67504 17.3775 3.18504C16.8292 2.69504 16.4383 2.10004 16.205 1.40004H24.255ZM5.495 4.30504L5.95 1.96004C6.46333 2.47337 7.035 2.88171 7.665 3.18504C8.41166 3.55837 9.12916 3.74504 9.8175 3.74504C10.5058 3.74504 11.2525 3.62837 12.0575 3.39504C12.8625 3.16171 13.58 2.84671 14.21 2.45004L13.51 5.95004C13.4167 6.41671 13.2183 6.89504 12.915 7.38504L12.88 7.42004C12.8567 7.46671 12.8217 7.51337 12.775 7.56004C12.285 8.19004 11.6725 8.65087 10.9375 8.94254C10.2025 9.23421 9.45 9.29837 8.68 9.13504C8.47 9.08837 8.26 9.01837 8.05 8.92504H7.98C8.12 8.99504 8.015 8.94837 7.665 8.78504C7.54833 8.71504 7.455 8.65671 7.385 8.61004H7.35C6.72 8.16671 6.265 7.68837 5.985 7.17504C5.96166 7.17504 5.95 7.16337 5.95 7.14004L5.67 6.58004L5.46 5.88004V5.81004C5.41333 5.53004 5.39 5.30837 5.39 5.14504C5.39 4.81837 5.425 4.53837 5.495 4.30504ZM8.925 22.295C7.99166 22.9017 6.965 23.1 5.845 22.89L5.46 22.785L5.075 22.645L5.04 22.61C4.24666 22.2834 3.6225 21.7409 3.1675 20.9825C2.7125 20.2242 2.52 19.4017 2.59 18.515V18.445L3.43 14.42L3.745 14.98L4.025 15.33C4.025 15.33 4.0425 15.3475 4.0775 15.3825C4.1125 15.4175 4.14166 15.4467 4.165 15.47C4.21166 15.54 4.29333 15.6334 4.41 15.75L4.795 16.1C4.84166 16.1234 4.9 16.17 4.97 16.24L5.46 16.555L5.95 16.8L6.475 17.01L7.035 17.15C7.26833 17.1967 7.455 17.22 7.595 17.22C7.64166 17.2434 7.7 17.255 7.77 17.255H8.085L8.715 17.22L8.89 17.185C8.98333 17.185 9.12333 17.1617 9.31 17.115L9.905 16.94L10.395 16.73L10.535 16.625C10.6283 16.6017 10.745 16.5434 10.885 16.45L11.41 16.065H11.445L10.675 19.705C10.675 19.7517 10.6517 19.8684 10.605 20.055V20.09C10.325 21.0234 9.765 21.7584 8.925 22.295ZM18.445 28.455C18.3283 28.9917 18.1183 29.4817 17.815 29.925C17.5117 30.3684 17.1383 30.7417 16.695 31.045C15.7617 31.6517 14.7408 31.85 13.6325 31.64C12.5242 31.43 11.655 30.8467 11.025 29.89C10.7217 29.4467 10.5175 28.9567 10.4125 28.42C10.3075 27.8834 10.3133 27.3467 10.43 26.81L11.165 23.17L11.445 23.66C11.8417 24.2434 12.3258 24.7275 12.8975 25.1125C13.4692 25.4975 14.105 25.76 14.805 25.9L15.33 26.005H15.4C15.7733 26.0284 16.1933 26.005 16.66 25.935H16.765L17.08 25.865L17.675 25.69C17.815 25.6434 17.9083 25.5967 17.955 25.55C17.9783 25.55 18.0367 25.5267 18.13 25.48L18.375 25.375L18.55 25.27C18.6433 25.2234 18.7133 25.1767 18.76 25.13H18.795C18.865 25.0834 18.9583 25.0017 19.075 24.885C19.0983 24.885 19.1333 24.8617 19.18 24.815L18.445 28.455ZM19.495 17.29C19.0517 17.5934 18.5675 17.7975 18.0425 17.9025C17.5175 18.0075 16.9867 18.0017 16.45 17.885C15.3533 17.675 14.4783 17.0917 13.825 16.135L13.615 15.785C13.475 15.4584 13.3817 15.2134 13.335 15.05C13.1483 14.4667 13.1133 13.8017 13.23 13.055L14 9.41504L14.28 9.90504C14.6767 10.4884 15.1608 10.9725 15.7325 11.3575C16.3042 11.7425 16.9342 12.005 17.6225 12.145C18.3108 12.285 18.9992 12.2909 19.6875 12.1625C20.3758 12.0342 21 11.7717 21.56 11.375C21.63 11.3517 21.7117 11.305 21.805 11.235C22.2483 10.885 22.3183 10.8267 22.015 11.06L21.28 14.7C21.0233 15.8434 20.4283 16.7067 19.495 17.29ZM29.015 23.45C28.805 24.5467 28.2275 25.4042 27.2825 26.0225C26.3375 26.6409 25.305 26.845 24.185 26.635C23.6483 26.5184 23.1583 26.3084 22.715 26.005C22.2717 25.7017 21.8983 25.3284 21.595 24.885C20.9883 23.9517 20.79 22.925 21 21.805L21.735 18.165C21.7583 18.165 21.77 18.1767 21.77 18.2C21.8633 18.3634 21.9567 18.515 22.05 18.655C22.05 18.6784 22.0617 18.7017 22.085 18.725L22.365 19.11L22.715 19.495L23.135 19.845C23.205 19.915 23.2633 19.9617 23.31 19.985L23.59 20.195C23.6833 20.2417 23.7417 20.2767 23.765 20.3L24.08 20.475C24.1733 20.5217 24.2433 20.545 24.29 20.545C24.3833 20.5917 24.5 20.6384 24.64 20.685C24.7333 20.7317 24.7917 20.755 24.815 20.755C24.955 20.8017 25.1417 20.8484 25.375 20.895C25.445 20.9184 25.5383 20.9417 25.655 20.965L25.935 21H26.145L26.425 21.035L26.495 21H26.67C26.8567 21 26.985 20.9884 27.055 20.965H27.23L27.65 20.86H27.755L28.245 20.685L28.385 20.65L28.875 20.405C28.9683 20.3584 29.085 20.2884 29.225 20.195C29.2483 20.195 29.2833 20.1717 29.33 20.125C29.47 20.055 29.61 19.95 29.75 19.81H29.785L29.015 23.45ZM31.85 9.69504C31.64 10.7917 31.0567 11.655 30.1 12.285C29.6567 12.5884 29.1667 12.7925 28.63 12.8975C28.0933 13.0025 27.5567 12.9967 27.02 12.88L26.6 12.775H26.53L26.215 12.635H26.18C25.5967 12.355 25.0833 11.9584 24.64 11.445L24.43 11.13C24.3133 10.99 24.185 10.7567 24.045 10.43V10.395C23.7183 9.64837 23.6483 8.8667 23.835 8.05004L24.78 4.23504C25.2 5.28504 25.865 6.07837 26.775 6.61504L27.16 6.82504L27.65 7.00004C27.7667 7.04671 27.9417 7.09337 28.175 7.14004C28.2683 7.16337 28.3617 7.18671 28.455 7.21004L28.735 7.24504H28.945C29.015 7.26837 29.1317 7.28004 29.295 7.28004L29.96 7.24504L30.765 7.10504C30.7883 7.08171 30.8233 7.07004 30.87 7.07004L31.395 6.86004C31.4183 6.86004 31.4767 6.83671 31.57 6.79004C31.7567 6.72004 31.9433 6.62671 32.13 6.51004L32.585 6.19504L31.85 9.69504ZM33.25 3.01004C33.25 3.01004 33.25 3.02171 33.25 3.04504L33.215 3.25504L33.005 3.81504L32.9 3.99004C32.9 4.01337 32.8767 4.0717 32.83 4.16504C32.8067 4.18837 32.7717 4.24671 32.725 4.34004L32.515 4.62004C32.4917 4.69004 32.4567 4.74254 32.41 4.77754C32.3633 4.81254 32.3225 4.84754 32.2875 4.88254C32.2525 4.91754 32.2175 4.95254 32.1825 4.98754C32.1475 5.02254 32.13 5.04004 32.13 5.04004L31.99 5.14504C31.9667 5.19171 31.9083 5.23837 31.815 5.28504L31.71 5.39004L31.395 5.56504C31.3017 5.61171 31.2317 5.64671 31.185 5.67004C31.1383 5.69337 31.1033 5.71671 31.08 5.74004L30.835 5.84504C30.7883 5.84504 30.7533 5.8567 30.73 5.88004C30.59 5.92671 30.4967 5.95004 30.45 5.95004L30.38 5.98504C30.31 5.98504 30.205 6.00837 30.065 6.05504L29.68 6.09004H29.225C29.0617 6.09004 28.7933 6.06671 28.42 6.02004C27.9067 5.92671 27.4458 5.71671 27.0375 5.39004C26.6292 5.06337 26.2967 4.65504 26.04 4.16504L25.795 3.60504C25.795 3.55837 25.7833 3.52337 25.76 3.50004C25.7133 3.33671 25.6667 3.13837 25.62 2.90504C25.62 2.85837 25.6083 2.82337 25.585 2.80004L25.515 2.13504L25.55 1.40004H33.67L33.25 3.01004Z" fill="white"/>
</svg>