<svg width="52" height="52" viewBox="0 0 52 52" fill="none" xmlns="http://www.w3.org/2000/svg">
  <path d="M41.236 36.7644H10.764C10.5213 36.7644 10.3133 36.8424 10.14 36.9984C9.96667 37.1544 9.88 37.3624 9.88 37.6224C9.88 37.8824 9.96667 38.0991 10.14 38.2724C10.3133 38.4458 10.5213 38.5324 10.764 38.5324H41.236C41.5133 38.5324 41.73 38.4458 41.886 38.2724C42.042 38.0991 42.12 37.8824 42.12 37.6224C42.12 37.3624 42.042 37.1544 41.886 36.9984C41.73 36.8424 41.5133 36.7644 41.236 36.7644ZM51.116 36.7644H49.296C49.0533 36.7644 48.8453 36.6691 48.672 36.4784C48.4987 36.2878 48.412 36.0884 48.412 35.8804V32.7084C48.412 30.5244 48.1 28.3751 47.476 26.2604C46.852 24.1458 45.968 22.1871 44.824 20.3844V20.3324L44.772 20.2284C43.3853 18.0791 41.704 16.1984 39.728 14.5864C37.752 12.9744 35.568 11.7524 33.176 10.9204V10.6604C33.176 9.96709 32.9247 9.36043 32.422 8.84043C31.9193 8.32043 31.304 8.06043 30.576 8.06043H21.528C20.7653 8.06043 20.124 8.32043 19.604 8.84043C19.084 9.36043 18.824 9.96709 18.824 10.6604V11.0244C15.8773 12.0298 13.2427 13.5984 10.92 15.7304C8.59733 17.8624 6.812 20.3498 5.564 23.1924C4.24667 26.1044 3.588 29.1378 3.588 32.2924V35.8804C3.588 36.1231 3.49267 36.3311 3.302 36.5044C3.11133 36.6778 2.912 36.7644 2.704 36.7644H0.884C0.641333 36.7644 0.433333 36.8424 0.26 36.9984C0.0866667 37.1544 0 37.3711 0 37.6484V43.0564C0 43.2991 0.0866667 43.5071 0.26 43.6804C0.433333 43.8538 0.641333 43.9404 0.884 43.9404H51.116C51.3933 43.9404 51.61 43.8538 51.766 43.6804C51.922 43.5071 52 43.2991 52 43.0564V37.6484C52 37.3711 51.922 37.1544 51.766 36.9984C51.61 36.8424 51.3933 36.7644 51.116 36.7644ZM40.3 17.5764C40.716 18.0271 41.132 18.4778 41.548 18.9284C42.0333 19.5524 42.3973 20.0378 42.64 20.3844L35.516 22.7764L37.908 15.5484C38.8787 16.2764 39.676 16.9524 40.3 17.5764ZM14.092 15.6004L16.484 22.8804L9.308 20.4364C10.7987 18.3911 12.3933 16.7791 14.092 15.6004ZM50.232 42.1204H1.82V38.5324H2.704C3.432 38.5324 4.056 38.2724 4.576 37.7524C5.096 37.2324 5.356 36.6084 5.356 35.8804V32.2924C5.356 28.5831 6.30933 25.0991 8.216 21.8404L17.68 25.0124C17.7147 25.0818 17.8013 25.1164 17.94 25.1164C18.0787 25.1164 18.3213 25.0298 18.668 24.8564C18.876 24.5791 18.928 24.2671 18.824 23.9204L15.756 14.4044C16.8653 13.7458 17.888 13.2604 18.824 12.9484V16.1204C18.824 16.3978 18.902 16.6231 19.058 16.7964C19.214 16.9698 19.4307 17.0564 19.708 17.0564C19.9853 17.0564 20.2107 16.9698 20.384 16.7964C20.5573 16.6231 20.644 16.3978 20.644 16.1204V10.6604C20.644 10.4524 20.722 10.2704 20.878 10.1144C21.034 9.95843 21.2507 9.88043 21.528 9.88043H25.116V20.6444C25.116 20.8871 25.2027 21.0951 25.376 21.2684C25.5493 21.4418 25.7573 21.5284 26 21.5284C26.2427 21.5284 26.4507 21.4331 26.624 21.2424C26.7973 21.0518 26.884 20.8524 26.884 20.6444V9.88043H30.576C30.8187 9.88043 31.0093 9.95843 31.148 10.1144C31.2867 10.2704 31.356 10.4524 31.356 10.6604V16.1204C31.356 16.3978 31.4427 16.6231 31.616 16.7964C31.7893 16.9698 32.0147 17.0564 32.292 17.0564C32.5693 17.0564 32.786 16.9698 32.942 16.7964C33.098 16.6231 33.176 16.3978 33.176 16.1204V12.9484C34.216 13.3298 35.2907 13.8498 36.4 14.5084L33.28 23.9204C33.072 24.1631 33.124 24.4751 33.436 24.8564C33.6787 25.0298 33.8867 25.1164 34.06 25.1164H34.32L43.68 21.9444C45.656 25.3418 46.644 28.9298 46.644 32.7084V35.8804C46.644 36.6084 46.904 37.2324 47.424 37.7524C47.944 38.2724 48.568 38.5324 49.296 38.5324H50.232V42.1204Z" fill="#ADADAD"/>
</svg>