<svg width="52" height="52" viewBox="0 0 52 52" fill="none" xmlns="http://www.w3.org/2000/svg">
  <path d="M23.4 42.276V13V4.68C23.4 3.64 23.0273 2.74733 22.282 2.002C21.5367 1.25666 20.644 0.883999 19.604 0.883999H13.364C12.324 0.883999 11.4227 1.25666 10.66 2.002C9.89732 2.74733 9.51599 3.64 9.51599 4.68V42.484C9.51599 42.7267 9.61999 42.9347 9.82799 43.108L15.756 51.636C15.9987 51.8787 16.25 52 16.51 52C16.77 52 16.9867 51.8613 17.16 51.584L23.036 43.212C23.2787 43.0387 23.4 42.796 23.4 42.484V42.276ZM11.284 41.6V13.884H15.6V41.6H11.284ZM21.684 12.116H16.484H11.284V8.684H21.684V12.116ZM17.316 13.884H21.684V41.6H17.316V13.884ZM11.284 4.68C11.284 4.09066 11.492 3.59666 11.908 3.198C12.324 2.79933 12.8093 2.6 13.364 2.6H19.604C20.1587 2.6 20.644 2.808 21.06 3.224C21.476 3.64 21.684 4.12533 21.684 4.68V6.916H11.284V4.68ZM16.484 49.66L12.064 43.316H20.904L16.484 49.66ZM39.884 0H31.2C30.472 0 29.8567 0.251331 29.354 0.753998C28.8513 1.25666 28.6 1.872 28.6 2.6V49.92C28.6 50.4747 28.808 50.96 29.224 51.376C29.64 51.792 30.1253 52 30.68 52H40.456C41.0107 52 41.4873 51.8007 41.886 51.402C42.2847 51.0033 42.484 50.5093 42.484 49.92V2.6C42.484 1.872 42.2327 1.25666 41.73 0.753998C41.2273 0.251331 40.612 0 39.884 0ZM40.82 49.92C40.82 49.9893 40.7853 50.0673 40.716 50.154C40.6467 50.2407 40.56 50.284 40.456 50.284H30.68C30.6107 50.284 30.5327 50.2407 30.446 50.154C30.3593 50.0673 30.316 49.9893 30.316 49.92V39H32.916C33.1933 39 33.41 38.9133 33.566 38.74C33.722 38.5667 33.8 38.3587 33.8 38.116C33.8 37.8733 33.722 37.674 33.566 37.518C33.41 37.362 33.1933 37.284 32.916 37.284H30.316V35.516H34.684C34.9613 35.516 35.1693 35.438 35.308 35.282C35.4467 35.126 35.516 34.918 35.516 34.658C35.516 34.398 35.438 34.19 35.282 34.034C35.126 33.878 34.9267 33.8 34.684 33.8H30.316V32.084H32.916C33.1933 32.084 33.41 31.9973 33.566 31.824C33.722 31.6507 33.8 31.434 33.8 31.174C33.8 30.914 33.722 30.706 33.566 30.55C33.41 30.394 33.1933 30.316 32.916 30.316H30.316V28.6H34.684C34.9267 28.6 35.126 28.522 35.282 28.366C35.438 28.21 35.516 27.9933 35.516 27.716C35.516 27.4387 35.4467 27.2307 35.308 27.092C35.1693 26.9533 34.9613 26.884 34.684 26.884H30.316V25.116H32.916C33.1933 25.116 33.41 25.038 33.566 24.882C33.722 24.726 33.8 24.518 33.8 24.258C33.8 23.998 33.722 23.79 33.566 23.634C33.41 23.478 33.1933 23.4 32.916 23.4H30.316V21.684H34.684C34.9267 21.684 35.126 21.606 35.282 21.45C35.438 21.294 35.516 21.0773 35.516 20.8C35.516 20.5227 35.438 20.306 35.282 20.15C35.126 19.994 34.9267 19.916 34.684 19.916H30.316V18.2H32.916C33.1933 18.2 33.41 18.1133 33.566 17.94C33.722 17.7667 33.8 17.5587 33.8 17.316C33.8 17.0733 33.722 16.874 33.566 16.718C33.41 16.562 33.1933 16.484 32.916 16.484H30.316V14.716H34.684C34.9613 14.716 35.1693 14.638 35.308 14.482C35.4467 14.326 35.516 14.118 35.516 13.858C35.516 13.598 35.438 13.39 35.282 13.234C35.126 13.078 34.9267 13 34.684 13H30.316V11.284H32.916C33.1933 11.284 33.41 11.1973 33.566 11.024C33.722 10.8507 33.8 10.634 33.8 10.374C33.8 10.114 33.722 9.906 33.566 9.75C33.41 9.594 33.1933 9.516 32.916 9.516H30.316V7.8H34.684C34.9267 7.8 35.126 7.722 35.282 7.566C35.438 7.41 35.516 7.19333 35.516 6.916C35.516 6.63866 35.4467 6.43066 35.308 6.292C35.1693 6.15333 34.9613 6.084 34.684 6.084H30.316V2.6C30.316 2.32267 30.4027 2.106 30.576 1.95C30.7493 1.794 30.9573 1.716 31.2 1.716H39.936C40.2133 1.716 40.43 1.794 40.586 1.95C40.742 2.106 40.82 2.32267 40.82 2.6V49.92ZM35.516 41.6C34.58 41.6 33.774 41.938 33.098 42.614C32.422 43.29 32.084 44.1047 32.084 45.058C32.084 46.0113 32.422 46.826 33.098 47.502C33.774 48.178 34.5887 48.516 35.542 48.516C36.4953 48.516 37.31 48.178 37.986 47.502C38.662 46.826 39 46.0113 39 45.058C39 44.1047 38.662 43.29 37.986 42.614C37.31 41.938 36.4867 41.6 35.516 41.6ZM35.516 46.8C35.0653 46.8 34.6667 46.6267 34.32 46.28C33.9733 45.9333 33.8 45.526 33.8 45.058C33.8 44.59 33.9733 44.1827 34.32 43.836C34.6667 43.4893 35.074 43.316 35.542 43.316C36.01 43.316 36.4173 43.4893 36.764 43.836C37.1107 44.1827 37.284 44.5987 37.284 45.084C37.284 45.5693 37.1107 45.9767 36.764 46.306C36.4173 46.6353 36.0013 46.8 35.516 46.8Z" fill="#FFC925"/>
</svg>