<svg width="53" height="52" viewBox="0 0 53 52" fill="none" xmlns="http://www.w3.org/2000/svg">
  <path d="M52.74 41.86L30.64 19.812L43.536 6.968C43.7094 6.79467 43.796 6.59533 43.796 6.37C43.796 6.14466 43.7094 5.94533 43.536 5.772L38.024 0.208C37.8854 0.0693321 37.7207 0 37.53 0C37.3394 0 37.1574 0.0519981 36.984 0.155998L20.656 10.4C20.448 10.4693 20.3094 10.5387 20.24 10.608L20.188 10.66C20.188 10.6947 20.188 10.712 20.188 10.712L11.66 19.188C11.556 19.292 11.4694 19.4307 11.4 19.604L1.15602 35.932C1.01736 36.1053 0.965357 36.2873 1.00002 36.478C1.03469 36.6687 1.12136 36.8333 1.26002 36.972L6.77202 42.536C7.01469 42.7093 7.22269 42.796 7.39602 42.796C7.56936 42.796 7.77736 42.7093 8.02002 42.536L20.812 29.64L42.86 51.74C43.0334 51.9133 43.2327 52 43.458 52C43.6834 52 43.8827 51.9133 44.056 51.74L52.74 43.056C52.9134 42.8827 53 42.6833 53 42.458C53 42.2327 52.9134 42.0333 52.74 41.86ZM37.296 1.976L41.716 6.396L29.444 18.616L22.216 11.388L37.296 1.976ZM7.39602 40.716L2.97602 36.296L12.44 21.268L19.616 28.496L7.39602 40.716ZM43.484 49.92L40.416 46.8L41.664 45.552C41.8374 45.3787 41.924 45.1793 41.924 44.954C41.924 44.7287 41.8374 44.5293 41.664 44.356C41.4907 44.1827 41.2827 44.096 41.04 44.096C40.7974 44.096 40.5894 44.1827 40.416 44.356L39.168 45.604L37.972 44.408L40.416 41.912C40.5894 41.7387 40.676 41.5393 40.676 41.314C40.676 41.0887 40.598 40.8893 40.442 40.716C40.286 40.5427 40.0867 40.456 39.844 40.456C39.6014 40.456 39.3934 40.5427 39.22 40.716L36.776 43.16L35.528 41.964L36.776 40.716C36.9494 40.5427 37.036 40.3347 37.036 40.092C37.036 39.8493 36.958 39.65 36.802 39.494C36.646 39.338 36.4467 39.26 36.204 39.26C35.9614 39.26 35.7534 39.3467 35.58 39.52L34.332 40.716L33.084 39.468L35.58 36.972C35.7534 36.7987 35.84 36.5993 35.84 36.374C35.84 36.1487 35.7534 35.9493 35.58 35.776C35.4067 35.6027 35.2074 35.516 34.982 35.516C34.7567 35.516 34.5574 35.6027 34.384 35.776L31.888 38.272L30.588 37.024L31.836 35.776C32.0094 35.6027 32.096 35.3947 32.096 35.152C32.096 34.9093 32.0094 34.7013 31.836 34.528C31.6627 34.3547 31.4634 34.268 31.238 34.268C31.0127 34.268 30.8134 34.3547 30.64 34.528L29.392 35.776L28.196 34.58L30.64 32.136C30.8134 31.9627 30.9 31.7547 30.9 31.512C30.9 31.2693 30.8134 31.0613 30.64 30.888C30.4667 30.7147 30.2674 30.628 30.042 30.628C29.8167 30.628 29.6174 30.7147 29.444 30.888L27 33.384L25.752 32.136L27 30.888C27.1734 30.7147 27.26 30.5153 27.26 30.29C27.26 30.0647 27.1734 29.8653 27 29.692C26.8267 29.5187 26.6274 29.432 26.402 29.432C26.1767 29.432 25.9774 29.5187 25.804 29.692L24.556 30.94L23.256 29.64L25.7 27.196C25.8734 27.0227 25.96 26.8147 25.96 26.572C25.96 26.3293 25.8734 26.1213 25.7 25.948C25.5267 25.7747 25.3274 25.688 25.102 25.688C24.8767 25.688 24.6774 25.7747 24.504 25.948L22.06 28.392L21.54 27.924C21.54 27.8893 21.5054 27.8373 21.436 27.768L20.864 27.196L22.06 25.948C22.2334 25.7747 22.32 25.5753 22.32 25.35C22.32 25.1247 22.2334 24.9253 22.06 24.752C21.8867 24.5787 21.6874 24.492 21.462 24.492C21.2367 24.492 21.0374 24.5787 20.864 24.752L19.616 25.948L18.42 24.752L20.864 22.308C21.0374 22.1347 21.124 21.9353 21.124 21.71C21.124 21.4847 21.046 21.2853 20.89 21.112C20.734 20.9387 20.526 20.852 20.266 20.852C20.006 20.852 19.7894 20.9387 19.616 21.112L17.224 23.556L15.976 22.308L17.224 21.112C17.3974 20.9387 17.484 20.7307 17.484 20.488C17.484 20.2453 17.3974 20.046 17.224 19.89C17.0507 19.734 16.8427 19.656 16.6 19.656C16.3574 19.656 16.1494 19.7427 15.976 19.916L14.78 21.112L13.48 19.812L20.864 12.428L28.82 20.436L28.976 20.54L50.92 42.432L43.484 49.92Z" fill="#ADADAD"/>
</svg>