<svg width="52" height="52" viewBox="0 0 52 52" fill="none" xmlns="http://www.w3.org/2000/svg">
  <path d="M48.984 39.2602C47.84 38.4282 46.5747 38.0122 45.188 38.0122C40.508 34.9616 37.336 32.5696 35.672 30.8362L31.46 26.6762C31.876 26.5376 32.2573 26.4682 32.604 26.4682C32.9507 26.4682 33.2107 26.2949 33.384 25.9482L50.96 8.42424C51.6533 7.73091 52 6.89891 52 5.92824C52 4.95757 51.6533 4.12558 50.96 3.43224L48.62 1.09224C47.9613 0.398907 47.138 0.0522423 46.15 0.0522423C45.162 0.0522423 44.3213 0.398907 43.628 1.09224L25.792 18.8242C25.5493 19.0669 25.48 19.3789 25.584 19.7602C25.584 19.8296 25.5667 19.9336 25.532 20.0722L25.428 20.4362L21.112 16.1722C17.9573 12.9482 15.5653 9.74157 13.936 6.55224C13.832 4.78424 13.1733 3.27624 11.96 2.02824C11.232 1.30024 10.374 0.771576 9.386 0.442242C8.398 0.112907 7.384 -0.0170937 6.344 0.0522423C6.032 0.190907 5.824 0.329575 5.72 0.468243C5.54667 0.745575 5.54667 1.04024 5.72 1.35224L8.112 5.66824C7.86933 6.22291 7.47067 6.66491 6.916 6.99424C6.36133 7.32357 5.78933 7.45358 5.2 7.38424L2.704 3.27624C2.66933 3.13757 2.574 3.02491 2.418 2.93824C2.262 2.85157 2.11467 2.80824 1.976 2.80824C1.69867 2.73891 1.47333 2.86024 1.3 3.17224C0.606667 4.21224 0.225333 5.32158 0.156 6.50024C0.0866667 7.67891 0.312 8.81424 0.832 9.90624C1.352 10.9982 2.132 11.9082 3.172 12.6362C4.212 13.3642 5.356 13.7802 6.604 13.8842H6.656C9.984 15.6176 13.156 17.9922 16.172 21.0082L19.916 24.7002L18.512 26.1042C18.3387 26.2776 18.252 26.4769 18.252 26.7022C18.252 26.9276 18.3387 27.1269 18.512 27.3002L19.76 28.5482L4.68 43.6802L0.884 46.2802C0.641333 46.4536 0.52 46.6442 0.52 46.8522L0 51.0122C0 51.2896 0.078 51.5149 0.234 51.6882C0.39 51.8616 0.606667 51.9482 0.884 51.9482L5.096 51.4282C5.304 51.4282 5.512 51.3242 5.72 51.1162L8.164 47.4762C8.19867 47.4762 8.25067 47.4416 8.32 47.3722L23.4 32.1882L24.648 33.4362C24.8213 33.6096 25.0207 33.6962 25.246 33.6962C25.4713 33.6962 25.7053 33.6096 25.948 33.4362L27.3 32.0842L30.888 35.7242C32.448 37.2496 34.8747 40.4736 38.168 45.3962C38.272 47.1296 38.9307 48.6029 40.144 49.8162C40.8027 50.4749 41.548 50.9689 42.38 51.2982C43.212 51.6276 44.0787 51.7922 44.98 51.7922H45.708C45.9853 51.7922 46.2107 51.6449 46.384 51.3502C46.5573 51.0556 46.5573 50.7696 46.384 50.4922L43.888 46.2802C44.1653 45.6909 44.5727 45.2402 45.11 44.9282C45.6473 44.6162 46.2453 44.4776 46.904 44.5122L49.296 48.6722C49.3307 48.8109 49.426 48.9236 49.582 49.0102C49.738 49.0969 49.8853 49.1402 50.024 49.1402C50.4053 49.0016 50.6653 48.8456 50.804 48.6722C51.4973 47.6669 51.8787 46.5662 51.948 45.3702C52.0173 44.1742 51.792 43.0302 51.272 41.9382C50.752 40.8462 49.9893 39.9536 48.984 39.2602ZM29.484 25.4802C28.7213 25.8269 28.0973 26.2429 27.612 26.7282C27.196 27.1442 26.936 27.6469 26.832 28.2362L23.608 25.0642C24.3013 24.9602 24.856 24.7002 25.272 24.2842C25.7573 23.8682 26.312 22.8629 26.936 21.2682L30.732 25.0642C30.42 25.1682 30.1253 25.2896 29.848 25.4282C29.7093 25.4282 29.588 25.4456 29.484 25.4802ZM44.824 2.28824C45.1707 1.94157 45.5867 1.76824 46.072 1.76824C46.5573 1.76824 46.9733 1.94157 47.32 2.28824L49.66 4.62824C50.0067 4.97491 50.18 5.39091 50.18 5.87624C50.18 6.36158 50.0067 6.77758 49.66 7.12424L32.5 24.2322L27.664 19.3962L44.824 2.28824ZM2.08 5.51224L3.9 8.63224C4.07333 8.90958 4.29867 9.04824 4.576 9.04824H5.044C6.04933 9.11757 6.968 8.90091 7.8 8.39824C8.632 7.89558 9.256 7.21091 9.672 6.34424L9.88 5.92824C10.0533 5.65091 10.0533 5.39091 9.88 5.14824L7.956 1.87224C8.96133 2.01091 9.88 2.49624 10.712 3.32824C11.7173 4.40291 12.22 5.58157 12.22 6.86424V7.07224C12.22 7.45358 12.168 7.83491 12.064 8.21624C11.752 9.49891 11.024 10.5216 9.88 11.2842C8.97867 11.8736 7.99933 12.1596 6.942 12.1422C5.88467 12.1249 4.914 11.8042 4.03 11.1802C3.146 10.5562 2.522 9.71558 2.158 8.65824C1.794 7.60091 1.768 6.55224 2.08 5.51224ZM9.516 13.4682C9.89733 13.3296 10.3653 13.1042 10.92 12.7922C12.1333 11.9602 13.0173 10.8336 13.572 9.41224C15.2013 12.1162 17.316 14.7682 19.916 17.3682L24.7 22.1522C24.4227 22.6376 24.232 22.9149 24.128 22.9842C23.92 23.1576 23.5213 23.2616 22.932 23.2962C22.724 23.3309 22.3253 23.3482 21.736 23.3482C21.528 23.3482 21.32 23.4002 21.112 23.5042L17.472 19.8642C14.9067 17.2642 12.2547 15.1322 9.516 13.4682ZM4.576 49.7122L1.82 50.0762L2.184 47.3722L5.044 45.4482L6.552 46.9042L4.576 49.7122ZM7.592 45.5522L6.396 44.3562L21.008 29.7962L22.256 31.0442L7.592 45.5522ZM25.272 31.5642L20.436 26.7282L21.632 25.4802L26.468 30.3162L25.272 31.5642ZM28.548 30.9402C28.652 30.7322 28.704 30.5242 28.704 30.3162L28.652 29.3802C28.652 28.6869 28.7907 28.2016 29.068 27.9242C29.172 27.7509 29.3627 27.6122 29.64 27.5082L29.952 27.3002L34.684 32.0842C36.2093 33.6442 38.9133 35.7416 42.796 38.3762C42.4147 38.4802 41.8773 38.7402 41.184 39.1562C39.8667 40.0922 38.9653 41.2709 38.48 42.6922L37.024 40.6122L38.22 39.4162C38.3933 39.2429 38.48 39.0349 38.48 38.7922C38.48 38.5496 38.402 38.3502 38.246 38.1942C38.09 38.0382 37.8907 37.9602 37.648 37.9602C37.4053 37.9602 37.1973 38.0469 37.024 38.2202L36.036 39.2082L34.996 37.8562L35.828 37.0242C36.0013 36.8509 36.088 36.6429 36.088 36.4002C36.088 36.1576 36.0013 35.9496 35.828 35.7762C35.6547 35.6029 35.4553 35.5162 35.23 35.5162C35.0047 35.5162 34.8053 35.6029 34.632 35.7762L33.904 36.5042C33.3493 35.8109 32.7773 35.1696 32.188 34.5802L28.548 30.9402ZM49.92 46.3322L48.1 43.2122C47.9267 42.9349 47.7013 42.7962 47.424 42.7962H47.008C46.0027 42.7269 45.0753 42.9349 44.226 43.4202C43.3767 43.9056 42.744 44.5989 42.328 45.5002L42.12 45.9162C41.9813 46.1589 41.9813 46.4189 42.12 46.6962L44.044 49.9722C43.0387 49.8336 42.12 49.3482 41.288 48.5162C40.3173 47.5109 39.8147 46.3669 39.78 45.0842V44.8762C39.78 44.0096 40.04 43.1082 40.56 42.1722C41.0107 41.4789 41.5307 40.9416 42.12 40.5602C42.1893 40.4909 42.2933 40.4216 42.432 40.3522C43.1253 39.9709 43.888 39.7802 44.72 39.7802C44.824 39.7802 44.9453 39.7456 45.084 39.6762C46.1587 39.7456 47.112 40.0576 47.944 40.6122C48.8453 41.2709 49.478 42.1289 49.842 43.1862C50.206 44.2436 50.232 45.2922 49.92 46.3322ZM31.408 20.5402C31.5467 20.7136 31.746 20.8002 32.006 20.8002C32.266 20.8002 32.4653 20.7136 32.604 20.5402L47.32 5.87624C47.4933 5.70291 47.58 5.49491 47.58 5.25224C47.58 5.00957 47.4933 4.80157 47.32 4.62824C47.1467 4.45491 46.9473 4.36824 46.722 4.36824C46.4967 4.36824 46.2973 4.45491 46.124 4.62824L31.408 19.3442C31.2347 19.5176 31.148 19.7169 31.148 19.9422C31.148 20.1676 31.2347 20.3669 31.408 20.5402Z" fill="#FFC925"/>
</svg>