<svg width="52" height="52" viewBox="0 0 52 52" fill="none" xmlns="http://www.w3.org/2000/svg">
  <path d="M45.916 6.136V2.6C45.916 1.872 45.6733 1.25666 45.188 0.753998C44.7027 0.251331 44.0787 0 43.316 0H6.084C5.32134 0 4.69734 0.251331 4.212 0.753998C3.72667 1.25666 3.484 1.872 3.484 2.6V6.084H2.6C2.32267 6.084 2.106 6.162 1.95 6.318C1.794 6.474 1.716 6.67333 1.716 6.916C1.716 7.15866 1.80267 7.36666 1.976 7.54C2.14934 7.71333 2.35734 7.8 2.6 7.8H3.484V11.284C3.484 12.012 3.72667 12.6273 4.212 13.13C4.69734 13.6327 5.32134 13.884 6.084 13.884H43.316C44.0787 13.884 44.7027 13.6327 45.188 13.13C45.6733 12.6273 45.916 12.012 45.916 11.284V7.904C46.6787 8.112 47.3027 8.528 47.788 9.152C48.2733 9.776 48.516 10.4867 48.516 11.284V14.716C48.516 15.548 48.256 16.2933 47.736 16.952C47.216 17.6107 46.5573 18.0267 45.76 18.2C45.448 18.2693 43.108 18.4947 38.74 18.876C34.58 19.2573 30.628 19.604 26.884 19.916C25.9133 19.916 25.09 20.254 24.414 20.93C23.738 21.606 23.4 22.4293 23.4 23.4V28.6H18.2C17.9227 28.6 17.6973 28.7213 17.524 28.964C17.3507 29.2067 17.2813 29.432 17.316 29.64L18.2 33.956C18.304 34.4413 18.5987 34.684 19.084 34.684H19.916V47.684C19.916 48.8973 20.3407 49.92 21.19 50.752C22.0393 51.584 23.0707 52 24.284 52C25.4973 52 26.52 51.5753 27.352 50.726C28.184 49.8767 28.6 48.8627 28.6 47.684V34.684H29.484C29.692 34.684 29.874 34.6233 30.03 34.502C30.186 34.3807 30.2813 34.1987 30.316 33.956L31.2 29.64C31.304 29.3973 31.252 29.1633 31.044 28.938C30.836 28.7127 30.5933 28.6 30.316 28.6H25.116V23.4C25.116 22.9147 25.2893 22.5073 25.636 22.178C25.9827 21.8487 26.416 21.684 26.936 21.684C39.208 20.644 45.604 20.0547 46.124 19.916C47.3373 19.6387 48.334 19.0147 49.114 18.044C49.894 17.0733 50.284 15.964 50.284 14.716V11.284C50.284 10.0013 49.868 8.87466 49.036 7.904C48.204 6.93333 47.164 6.344 45.916 6.136ZM43.316 12.116H6.084C5.80667 12.116 5.59 12.038 5.434 11.882C5.278 11.726 5.2 11.5267 5.2 11.284V10.4H13.884C14.1267 10.4 14.326 10.322 14.482 10.166C14.638 10.01 14.716 9.79333 14.716 9.516C14.716 9.23867 14.6467 9.03067 14.508 8.892C14.3693 8.75333 14.1613 8.684 13.884 8.684H5.2V5.2H22.516C22.7933 5.2 23.01 5.11333 23.166 4.94C23.322 4.76667 23.4 4.55867 23.4 4.316C23.4 4.07333 23.322 3.874 23.166 3.718C23.01 3.562 22.7933 3.484 22.516 3.484H5.2V2.6C5.2 2.392 5.28667 2.19267 5.46 2.002C5.63334 1.81133 5.84134 1.716 6.084 1.716H43.316C43.5933 1.716 43.81 1.794 43.966 1.95C44.122 2.106 44.2 2.32267 44.2 2.6V3.484H38.116C37.8733 3.484 37.674 3.55333 37.518 3.692C37.362 3.83067 37.284 4.03867 37.284 4.316C37.284 4.59333 37.362 4.81 37.518 4.966C37.674 5.122 37.8733 5.2 38.116 5.2H44.2V8.684H29.484C29.2067 8.684 28.99 8.762 28.834 8.918C28.678 9.074 28.6 9.27333 28.6 9.516C28.6 9.75867 28.6867 9.96667 28.86 10.14C29.0333 10.3133 29.2413 10.4 29.484 10.4H44.2V11.284C44.2 11.5267 44.122 11.726 43.966 11.882C43.81 12.038 43.5933 12.116 43.316 12.116ZM28.756 32.916H27.716C27.4733 32.916 27.274 32.994 27.118 33.15C26.962 33.306 26.884 33.5227 26.884 33.8V47.684C26.884 48.412 26.6327 49.0273 26.13 49.53C25.6273 50.0327 25.0033 50.284 24.258 50.284C23.5127 50.284 22.8973 50.0327 22.412 49.53C21.9267 49.0273 21.684 48.412 21.684 47.684H23.4C23.6773 47.684 23.894 47.5973 24.05 47.424C24.206 47.2507 24.284 47.034 24.284 46.774C24.284 46.514 24.206 46.306 24.05 46.15C23.894 45.994 23.6773 45.916 23.4 45.916H21.684V44.2H23.4C23.6773 44.2 23.894 44.1133 24.05 43.94C24.206 43.7667 24.284 43.5587 24.284 43.316C24.284 43.0733 24.206 42.874 24.05 42.718C23.894 42.562 23.6773 42.484 23.4 42.484H21.684V33.8C21.684 33.5227 21.606 33.306 21.45 33.15C21.294 32.994 21.0773 32.916 20.8 32.916H19.76L19.24 30.316H29.276L28.756 32.916Z" fill="#FFC925"/>
</svg>