<svg width="52" height="52" viewBox="0 0 52 52" fill="none" xmlns="http://www.w3.org/2000/svg">
  <path d="M43.264 15.756C42.9867 13.052 42.12 10.556 40.664 8.268C39.208 5.98 37.3447 4.11666 35.074 2.678C32.8034 1.23933 30.3334 0.381332 27.664 0.104L26 0L24.336 0.104C21.6667 0.416 19.1967 1.3 16.926 2.756C14.6553 4.212 12.792 6.07533 11.336 8.346C9.88002 10.6167 9.01335 13.0867 8.73602 15.756C8.45868 18.5293 8.78802 21.216 9.72402 23.816C10.66 26.416 12.1333 28.6693 14.144 30.576C15.184 31.616 16.0507 32.7253 16.744 33.904C17.4373 35.0827 17.9227 36.2613 18.2 37.44V47.684C18.2 47.9267 18.278 48.126 18.434 48.282C18.59 48.438 18.8067 48.516 19.084 48.516H20.384L21.944 50.596C22.672 51.532 23.5907 52 24.7 52H27.3C27.8894 52 28.4267 51.8787 28.912 51.636C29.3974 51.3933 29.7787 51.0467 30.056 50.596L31.616 48.516H32.916C33.1933 48.516 33.41 48.438 33.566 48.282C33.722 48.126 33.8 47.9267 33.8 47.684V37.44C34.008 36.296 34.4674 35.1347 35.178 33.956C35.8887 32.7773 36.7813 31.6507 37.856 30.576C39.8667 28.6347 41.34 26.3727 42.276 23.79C43.212 21.2073 43.5413 18.5293 43.264 15.756ZM22.516 21.684H20.8C20.3147 21.684 19.9073 21.5107 19.578 21.164C19.2487 20.8173 19.084 20.4013 19.084 19.916C19.084 19.4307 19.2487 19.0233 19.578 18.694C19.9073 18.3647 20.3147 18.2 20.8 18.2C21.2853 18.2 21.6927 18.3647 22.022 18.694C22.3513 19.0233 22.516 19.4307 22.516 19.916V21.684ZM27.716 36.4H24.284V23.4H27.716V36.4ZM32.084 38.116V39.884H29.484C29.2067 39.884 28.99 39.962 28.834 40.118C28.678 40.274 28.6 40.4733 28.6 40.716C28.6 40.9587 28.6867 41.1667 28.86 41.34C29.0333 41.5133 29.2414 41.6 29.484 41.6H32.084V43.316H26.884C26.6413 43.316 26.4333 43.394 26.26 43.55C26.0867 43.706 26 43.914 26 44.174C26 44.434 26.0867 44.6507 26.26 44.824C26.4333 44.9973 26.6413 45.084 26.884 45.084H32.084V46.8H19.916V45.084H22.516C22.7934 45.084 23.01 44.9973 23.166 44.824C23.322 44.6507 23.4 44.434 23.4 44.174C23.4 43.914 23.322 43.706 23.166 43.55C23.01 43.394 22.7934 43.316 22.516 43.316H19.916V41.6H25.116C25.3934 41.6 25.61 41.5133 25.766 41.34C25.922 41.1667 26 40.9587 26 40.716C26 40.4733 25.922 40.274 25.766 40.118C25.61 39.962 25.3934 39.884 25.116 39.884H19.916V38.116H32.084ZM28.704 49.556C28.3227 50.0413 27.8547 50.284 27.3 50.284H24.7C24.1454 50.284 23.6774 50.0413 23.296 49.556L22.516 48.516H29.484L28.704 49.556ZM36.66 29.276C34.372 31.564 32.8987 33.9387 32.24 36.4H29.484V23.4H31.2C32.1707 23.4 32.994 23.062 33.67 22.386C34.346 21.71 34.684 20.8953 34.684 19.942C34.684 18.9887 34.346 18.174 33.67 17.498C32.994 16.822 32.1707 16.484 31.2 16.484C30.2294 16.484 29.406 16.822 28.73 17.498C28.054 18.174 27.716 18.98 27.716 19.916V21.684H24.284V19.916C24.284 18.98 23.946 18.174 23.27 17.498C22.594 16.822 21.7707 16.484 20.8 16.484C19.8293 16.484 19.006 16.822 18.33 17.498C17.654 18.174 17.316 18.9887 17.316 19.942C17.316 20.8953 17.654 21.71 18.33 22.386C19.006 23.062 19.8293 23.4 20.8 23.4H22.516V36.4H19.76C19.1013 33.9387 17.628 31.564 15.34 29.276C13.5373 27.5773 12.2113 25.558 11.362 23.218C10.5127 20.878 10.2267 18.46 10.504 15.964C10.7813 13.5373 11.57 11.3013 12.87 9.256C14.17 7.21067 15.8427 5.52933 17.888 4.212C19.9333 2.89466 22.1693 2.09733 24.596 1.82L26 1.716L27.404 1.82C29.8307 2.09733 32.0667 2.89466 34.112 4.212C36.1574 5.52933 37.8387 7.21067 39.156 9.256C40.4733 11.3013 41.2533 13.5373 41.496 15.964C41.7733 18.46 41.4874 20.878 40.638 23.218C39.7887 25.558 38.4627 27.5773 36.66 29.276ZM29.484 21.684V19.916C29.484 19.4307 29.6574 19.0233 30.004 18.694C30.3507 18.3647 30.758 18.2 31.226 18.2C31.694 18.2 32.0927 18.3647 32.422 18.694C32.7514 19.0233 32.916 19.4307 32.916 19.916C32.916 20.4013 32.7427 20.8173 32.396 21.164C32.0494 21.5107 31.6507 21.684 31.2 21.684H29.484Z" fill="#FFC925"/>
</svg>