<svg width="12" height="15" viewBox="0 0 12 15" fill="none" xmlns="http://www.w3.org/2000/svg">
  <path d="M8 11.957C7.78125 10.7018 7.41667 9.40495 6.90625 8.06641H6.89062L6.875 8.07422C6.79167 8.10547 6.67969 8.14844 6.53906 8.20312C6.39844 8.25781 6.13542 8.38542 5.75 8.58594C5.36458 8.78646 5.00781 9 4.67969 9.22656C4.35156 9.45312 4.01042 9.7513 3.65625 10.1211C3.30208 10.4909 3.03385 10.8763 2.85156 11.2773L2.73438 11.1914C3.69271 11.9727 4.78125 12.3633 6 12.3633C6.6875 12.3633 7.35417 12.2279 8 11.957ZM6.55469 7.21484C6.44531 6.95964 6.30729 6.67057 6.14062 6.34766C4.52083 6.83203 2.76823 7.07422 0.882812 7.07422C0.877604 7.11068 0.875 7.16536 0.875 7.23828C0.875 7.88411 0.989583 8.5 1.21875 9.08594C1.44792 9.67188 1.77083 10.1966 2.1875 10.6602C2.44792 10.1966 2.76953 9.76302 3.15234 9.35938C3.53516 8.95573 3.90625 8.63151 4.26562 8.38672C4.625 8.14193 4.96484 7.93099 5.28516 7.75391C5.60547 7.57682 5.86458 7.45182 6.0625 7.37891L6.35156 7.27734C6.3724 7.27214 6.40625 7.26302 6.45312 7.25C6.5 7.23698 6.53385 7.22526 6.55469 7.21484ZM5.71875 5.55859C5.09375 4.44922 4.45833 3.46484 3.8125 2.60547C3.09375 2.94401 2.48438 3.42839 1.98438 4.05859C1.48438 4.6888 1.15104 5.39714 0.984375 6.18359C2.55729 6.18359 4.13542 5.97526 5.71875 5.55859ZM11.0625 8.05078C9.96875 7.73828 8.90365 7.66276 7.86719 7.82422C8.32031 9.06901 8.65365 10.2904 8.86719 11.4883C9.44531 11.0977 9.92708 10.6042 10.3125 10.0078C10.6979 9.41146 10.9479 8.75911 11.0625 8.05078ZM9.38281 3.39453C8.41927 2.54036 7.29167 2.11328 6 2.11328C5.60417 2.11328 5.20052 2.16276 4.78906 2.26172C5.47135 3.14714 6.11198 4.14193 6.71094 5.24609C7.07031 5.11068 7.40885 4.95312 7.72656 4.77344C8.04427 4.59375 8.29557 4.43359 8.48047 4.29297C8.66536 4.15234 8.83594 4.00391 8.99219 3.84766C9.14844 3.69141 9.24609 3.58594 9.28516 3.53125C9.32422 3.47656 9.35677 3.43099 9.38281 3.39453ZM11.125 7.18359C11.1094 5.97526 10.7214 4.90755 9.96094 3.98047L9.95312 3.98828C9.90625 4.05078 9.85677 4.11458 9.80469 4.17969C9.7526 4.24479 9.63932 4.36068 9.46484 4.52734C9.29036 4.69401 9.10547 4.85156 8.91016 5C8.71484 5.14844 8.45443 5.31771 8.12891 5.50781C7.80339 5.69792 7.46094 5.86589 7.10156 6.01172C7.23177 6.28776 7.34635 6.53516 7.44531 6.75391C7.45573 6.77995 7.47266 6.82422 7.49609 6.88672C7.51953 6.94922 7.53906 6.99349 7.55469 7.01953C7.74219 6.99349 7.9362 6.97526 8.13672 6.96484C8.33724 6.95443 8.52865 6.94922 8.71094 6.94922C8.89323 6.94922 9.07292 6.95312 9.25 6.96094C9.42708 6.96875 9.59375 6.97917 9.75 6.99219C9.90625 7.00521 10.0534 7.01953 10.1914 7.03516C10.3294 7.05078 10.4544 7.06771 10.5664 7.08594C10.6784 7.10417 10.7734 7.11979 10.8516 7.13281C10.9297 7.14583 10.9948 7.15755 11.0469 7.16797L11.125 7.18359ZM11.1953 4.22656C11.1953 4.22656 11.3294 4.45638 11.5977 4.91602C11.8659 5.37565 12 6.14974 12 7.23828C12 8.32682 11.7318 9.33073 11.1953 10.25C10.6589 11.1693 9.93099 11.8971 9.01172 12.4336C8.09245 12.9701 7.08854 13.2383 6 13.2383C4.91146 13.2383 3.90755 12.9701 2.98828 12.4336C2.06901 11.8971 1.34115 11.1693 0.804688 10.25C0.268229 9.33073 0 8.32682 0 7.23828C0 6.14974 0.268229 5.14583 0.804688 4.22656C1.34115 3.30729 2.06901 2.57943 2.98828 2.04297C3.90755 1.50651 4.91146 1.23828 6 1.23828C7.08854 1.23828 8.09245 1.50651 9.01172 2.04297C9.93099 2.57943 10.6589 3.30729 11.1953 4.22656Z" fill="#FFC925"/>
</svg>