<svg width="18" height="15" viewBox="0 0 18 15" fill="none" xmlns="http://www.w3.org/2000/svg">
  <path d="M11.2266 7.37158C11.2266 8.45492 11 9.41976 10.5469 10.2661C10.0938 11.1125 9.44792 11.7739 8.60938 12.2505C7.77083 12.7271 6.8099 12.9653 5.72656 12.9653C4.95052 12.9653 4.20833 12.8143 3.5 12.5122C2.79167 12.2101 2.18229 11.8039 1.67188 11.2935C1.16146 10.783 0.755208 10.1737 0.453125 9.46533C0.151042 8.757 0 8.01481 0 7.23877C0 6.46273 0.151042 5.72054 0.453125 5.01221C0.755208 4.30387 1.16146 3.6945 1.67188 3.18408C2.18229 2.67367 2.79167 2.26742 3.5 1.96533C4.20833 1.66325 4.95052 1.51221 5.72656 1.51221C7.21615 1.51221 8.49479 2.01221 9.5625 3.01221L8.00781 4.50439C7.39844 3.91585 6.63802 3.62158 5.72656 3.62158C5.08594 3.62158 4.49349 3.78304 3.94922 4.10596C3.40495 4.42887 2.97396 4.86768 2.65625 5.42236C2.33854 5.97705 2.17969 6.58252 2.17969 7.23877C2.17969 7.89502 2.33854 8.50049 2.65625 9.05518C2.97396 9.60986 3.40495 10.0487 3.94922 10.3716C4.49349 10.6945 5.08594 10.856 5.72656 10.856C6.15885 10.856 6.55599 10.7961 6.91797 10.6763C7.27995 10.5565 7.57812 10.4067 7.8125 10.2271C8.04688 10.0474 8.2513 9.84294 8.42578 9.61377C8.60026 9.3846 8.72786 9.16846 8.80859 8.96533C8.88932 8.76221 8.94531 8.5695 8.97656 8.38721H5.72656V6.41846H11.1328C11.1953 6.74658 11.2266 7.06429 11.2266 7.37158ZM18 6.41846V8.05908H16.3672V9.69189H14.7266V8.05908H13.0938V6.41846H14.7266V4.78564H16.3672V6.41846H18Z" fill="#FFC925"/>
</svg>