<svg width="12" height="15" viewBox="0 0 12 15" fill="none" xmlns="http://www.w3.org/2000/svg">
  <path d="M11.1953 4.22656C11.1953 4.22656 11.3294 4.45638 11.5977 4.91602C11.8659 5.37565 12 6.14974 12 7.23828C12 8.32682 11.7318 9.33073 11.1953 10.25C10.6589 11.1693 9.93099 11.8971 9.01172 12.4336C8.09245 12.9701 7.08854 13.2383 6 13.2383C5.42188 13.2383 4.85417 13.1549 4.29688 12.9883C4.60417 12.5039 4.80729 12.0768 4.90625 11.707C4.95312 11.5299 5.09375 10.9805 5.32812 10.0586C5.43229 10.2617 5.6224 10.4375 5.89844 10.5859C6.17448 10.7344 6.47135 10.8086 6.78906 10.8086C7.41927 10.8086 7.98177 10.6302 8.47656 10.2734C8.97135 9.91667 9.35417 9.42578 9.625 8.80078C9.89583 8.17578 10.0312 7.47266 10.0312 6.69141C10.0312 6.09766 9.8763 5.54036 9.56641 5.01953C9.25651 4.4987 8.80729 4.07422 8.21875 3.74609C7.63021 3.41797 6.96615 3.25391 6.22656 3.25391C5.67969 3.25391 5.16927 3.32943 4.69531 3.48047C4.22135 3.63151 3.81901 3.83203 3.48828 4.08203C3.15755 4.33203 2.8737 4.61979 2.63672 4.94531C2.39974 5.27083 2.22526 5.60807 2.11328 5.95703C2.0013 6.30599 1.94531 6.65495 1.94531 7.00391C1.94531 7.54557 2.04948 8.02214 2.25781 8.43359C2.46615 8.84505 2.77083 9.13411 3.17188 9.30078C3.32812 9.36328 3.42708 9.3112 3.46875 9.14453C3.47917 9.10807 3.5 9.02734 3.53125 8.90234C3.5625 8.77734 3.58333 8.69922 3.59375 8.66797C3.625 8.54818 3.59635 8.4362 3.50781 8.33203C3.24219 8.01432 3.10938 7.62109 3.10938 7.15234C3.10938 6.36589 3.38151 5.6901 3.92578 5.125C4.47005 4.5599 5.18229 4.27734 6.0625 4.27734C6.84896 4.27734 7.46224 4.49089 7.90234 4.91797C8.34245 5.34505 8.5625 5.89974 8.5625 6.58203C8.5625 7.46745 8.38411 8.22005 8.02734 8.83984C7.67057 9.45964 7.21354 9.76953 6.65625 9.76953C6.33854 9.76953 6.08333 9.65625 5.89062 9.42969C5.69792 9.20312 5.63802 8.93099 5.71094 8.61328C5.7526 8.43099 5.82161 8.1875 5.91797 7.88281C6.01432 7.57812 6.09245 7.3099 6.15234 7.07812C6.21224 6.84635 6.24219 6.64974 6.24219 6.48828C6.24219 6.22786 6.17188 6.01172 6.03125 5.83984C5.89062 5.66797 5.6901 5.58203 5.42969 5.58203C5.10677 5.58203 4.83333 5.73047 4.60938 6.02734C4.38542 6.32422 4.27344 6.69401 4.27344 7.13672C4.27344 7.51693 4.33854 7.83464 4.46875 8.08984L3.69531 11.3555C3.60677 11.7201 3.57292 12.181 3.59375 12.7383C2.52083 12.2643 1.65365 11.5326 0.992188 10.543C0.330729 9.55339 0 8.45182 0 7.23828C0 6.14974 0.268229 5.14583 0.804688 4.22656C1.34115 3.30729 2.06901 2.57943 2.98828 2.04297C3.90755 1.50651 4.91146 1.23828 6 1.23828C7.08854 1.23828 8.09245 1.50651 9.01172 2.04297C9.93099 2.57943 10.6589 3.30729 11.1953 4.22656Z" fill="white"/>
</svg>