<svg width="12" height="15" viewBox="0 0 12 15" fill="none" xmlns="http://www.w3.org/2000/svg">
  <path d="M11.1953 4.22705C11.1953 4.22705 11.3294 4.45687 11.5977 4.9165C11.8659 5.37614 12 6.15023 12 7.23877C12 8.32731 11.7318 9.33122 11.1953 10.2505C10.6589 11.1698 9.93099 11.8976 9.01172 12.4341C8.09245 12.9705 7.08854 13.2388 6 13.2388C5.42188 13.2388 4.85417 13.1554 4.29688 12.9888C4.60417 12.5044 4.80729 12.0773 4.90625 11.7075C4.95312 11.5304 5.09375 10.981 5.32812 10.0591C5.43229 10.2622 5.6224 10.438 5.89844 10.5864C6.17448 10.7349 6.47135 10.8091 6.78906 10.8091C7.41927 10.8091 7.98177 10.6307 8.47656 10.2739C8.97135 9.91716 9.35417 9.42627 9.625 8.80127C9.89583 8.17627 10.0312 7.47314 10.0312 6.69189C10.0312 6.09814 9.8763 5.54085 9.56641 5.02002C9.25651 4.49919 8.80729 4.07471 8.21875 3.74658C7.63021 3.41846 6.96615 3.25439 6.22656 3.25439C5.67969 3.25439 5.16927 3.32992 4.69531 3.48096C4.22135 3.632 3.81901 3.83252 3.48828 4.08252C3.15755 4.33252 2.8737 4.62028 2.63672 4.9458C2.39974 5.27132 2.22526 5.60856 2.11328 5.95752C2.0013 6.30648 1.94531 6.65544 1.94531 7.00439C1.94531 7.54606 2.04948 8.02262 2.25781 8.43408C2.46615 8.84554 2.77083 9.1346 3.17188 9.30127C3.32812 9.36377 3.42708 9.31169 3.46875 9.14502C3.47917 9.10856 3.5 9.02783 3.53125 8.90283C3.5625 8.77783 3.58333 8.69971 3.59375 8.66846C3.625 8.54867 3.59635 8.43669 3.50781 8.33252C3.24219 8.01481 3.10938 7.62158 3.10938 7.15283C3.10938 6.36637 3.38151 5.69059 3.92578 5.12549C4.47005 4.56038 5.18229 4.27783 6.0625 4.27783C6.84896 4.27783 7.46224 4.49137 7.90234 4.91846C8.34245 5.34554 8.5625 5.90023 8.5625 6.58252C8.5625 7.46794 8.38411 8.22054 8.02734 8.84033C7.67057 9.46012 7.21354 9.77002 6.65625 9.77002C6.33854 9.77002 6.08333 9.65674 5.89062 9.43018C5.69792 9.20361 5.63802 8.93148 5.71094 8.61377C5.7526 8.43148 5.82161 8.18799 5.91797 7.8833C6.01432 7.57861 6.09245 7.31038 6.15234 7.07861C6.21224 6.84684 6.24219 6.65023 6.24219 6.48877C6.24219 6.22835 6.17188 6.01221 6.03125 5.84033C5.89062 5.66846 5.6901 5.58252 5.42969 5.58252C5.10677 5.58252 4.83333 5.73096 4.60938 6.02783C4.38542 6.32471 4.27344 6.6945 4.27344 7.13721C4.27344 7.51742 4.33854 7.83512 4.46875 8.09033L3.69531 11.356C3.60677 11.7205 3.57292 12.1815 3.59375 12.7388C2.52083 12.2648 1.65365 11.533 0.992188 10.5435C0.330729 9.55387 0 8.45231 0 7.23877C0 6.15023 0.268229 5.14632 0.804688 4.22705C1.34115 3.30778 2.06901 2.57992 2.98828 2.04346C3.90755 1.507 4.91146 1.23877 6 1.23877C7.08854 1.23877 8.09245 1.507 9.01172 2.04346C9.93099 2.57992 10.6589 3.30778 11.1953 4.22705Z" fill="#FFC925"/>
</svg>