<svg width="14" height="14" viewBox="0 0 14 14" fill="none" xmlns="http://www.w3.org/2000/svg">
  <path d="M12.9512 3.1875C12.6023 3.69792 12.1804 4.13281 11.6856 4.49219C11.6908 4.5651 11.6934 4.67448 11.6934 4.82031C11.6934 5.4974 11.5945 6.17318 11.3965 6.84766C11.1986 7.52214 10.8978 8.16927 10.4942 8.78906C10.0906 9.40885 9.61009 9.95703 9.0528 10.4336C8.4955 10.9102 7.82363 11.2904 7.03717 11.5742C6.25071 11.8581 5.40957 12 4.51373 12C3.10227 12 1.81061 11.6224 0.638733 10.8672C0.821025 10.888 1.02415 10.8984 1.24811 10.8984C2.41998 10.8984 3.46425 10.5391 4.38092 9.82031C3.83405 9.8099 3.34446 9.64193 2.91217 9.31641C2.47988 8.99089 2.183 8.57552 2.02155 8.07031C2.19342 8.09635 2.35227 8.10938 2.49811 8.10938C2.72207 8.10938 2.94342 8.08073 3.16217 8.02344C2.57884 7.90365 2.09576 7.61328 1.71295 7.15234C1.33014 6.69141 1.13873 6.15625 1.13873 5.54688V5.51562C1.4929 5.71354 1.87311 5.82031 2.27936 5.83594C1.93561 5.60677 1.66217 5.30729 1.45905 4.9375C1.25592 4.56771 1.15436 4.16667 1.15436 3.73438C1.15436 3.27604 1.26894 2.85156 1.49811 2.46094C2.12832 3.23698 2.89524 3.85807 3.79889 4.32422C4.70254 4.79036 5.66998 5.04948 6.70123 5.10156C6.65957 4.90365 6.63873 4.71094 6.63873 4.52344C6.63873 3.82552 6.88483 3.23047 7.37701 2.73828C7.8692 2.24609 8.46425 2 9.16217 2C9.89134 2 10.5059 2.26562 11.0059 2.79688C11.5736 2.6875 12.1075 2.48438 12.6075 2.1875C12.4148 2.78646 12.045 3.25 11.4981 3.57812C11.9825 3.52604 12.4669 3.39583 12.9512 3.1875Z" fill="white"/>
</svg>