<svg width="13" height="15" viewBox="0 0 13 15" fill="none" xmlns="http://www.w3.org/2000/svg">
  <path d="M12.6562 3.42627C12.3073 3.93669 11.8854 4.37158 11.3906 4.73096C11.3958 4.80387 11.3984 4.91325 11.3984 5.05908C11.3984 5.73617 11.2995 6.41195 11.1016 7.08643C10.9036 7.7609 10.6029 8.40804 10.1992 9.02783C9.79557 9.64762 9.3151 10.1958 8.75781 10.6724C8.20052 11.1489 7.52865 11.5291 6.74219 11.813C5.95573 12.0968 5.11458 12.2388 4.21875 12.2388C2.80729 12.2388 1.51562 11.8612 0.34375 11.106C0.526042 11.1268 0.729167 11.1372 0.953125 11.1372C2.125 11.1372 3.16927 10.7778 4.08594 10.0591C3.53906 10.0487 3.04948 9.8807 2.61719 9.55518C2.1849 9.22966 1.88802 8.81429 1.72656 8.30908C1.89844 8.33512 2.05729 8.34814 2.20312 8.34814C2.42708 8.34814 2.64844 8.3195 2.86719 8.26221C2.28385 8.14242 1.80078 7.85205 1.41797 7.39111C1.03516 6.93018 0.84375 6.39502 0.84375 5.78564V5.75439C1.19792 5.95231 1.57812 6.05908 1.98438 6.07471C1.64062 5.84554 1.36719 5.54606 1.16406 5.17627C0.960938 4.80648 0.859375 4.40544 0.859375 3.97314C0.859375 3.51481 0.973958 3.09033 1.20312 2.69971C1.83333 3.47575 2.60026 4.09684 3.50391 4.56299C4.40755 5.02913 5.375 5.28825 6.40625 5.34033C6.36458 5.14242 6.34375 4.94971 6.34375 4.76221C6.34375 4.06429 6.58984 3.46924 7.08203 2.97705C7.57422 2.48486 8.16927 2.23877 8.86719 2.23877C9.59635 2.23877 10.2109 2.50439 10.7109 3.03564C11.2786 2.92627 11.8125 2.72314 12.3125 2.42627C12.1198 3.02523 11.75 3.48877 11.2031 3.81689C11.6875 3.76481 12.1719 3.6346 12.6562 3.42627Z" fill="#FFC925"/>
</svg>