<svg width="15" height="16" viewBox="0 0 15 16" fill="none" xmlns="http://www.w3.org/2000/svg">
  <path d="M5.3764 12.911C5.3764 12.911 5.43295 12.9675 5.54605 13.0806C5.65914 13.1937 5.71569 13.405 5.71569 13.7146C5.71569 14.0241 5.60259 14.2919 5.3764 14.5181C5.15021 14.7443 4.88236 14.8574 4.57283 14.8574C4.26331 14.8574 3.99545 14.7443 3.76926 14.5181C3.54307 14.2919 3.42998 14.0241 3.42998 13.7146C3.42998 13.405 3.54307 13.1372 3.76926 12.911C3.99545 12.6848 4.26331 12.5717 4.57283 12.5717C4.88236 12.5717 5.15021 12.6848 5.3764 12.911ZM13.3764 12.911C13.3764 12.911 13.433 12.9675 13.546 13.0806C13.6591 13.1937 13.7157 13.405 13.7157 13.7146C13.7157 14.0241 13.6026 14.2919 13.3764 14.5181C13.1502 14.7443 12.8824 14.8574 12.5728 14.8574C12.2633 14.8574 11.9955 14.7443 11.7693 14.5181C11.5431 14.2919 11.43 14.0241 11.43 13.7146C11.43 13.405 11.5431 13.1372 11.7693 12.911C11.9955 12.6848 12.2633 12.5717 12.5728 12.5717C12.8824 12.5717 13.1502 12.6848 13.3764 12.911ZM14.8585 4.00028V8.57171C14.8585 8.71456 14.8094 8.84105 14.7112 8.95117C14.613 9.06129 14.4925 9.12528 14.3496 9.14314L5.02819 10.2324C5.10557 10.5896 5.14426 10.7979 5.14426 10.8574C5.14426 10.9527 5.07283 11.1431 4.92998 11.4289H13.1443C13.299 11.4289 13.433 11.4854 13.546 11.5985C13.6591 11.7116 13.7157 11.8455 13.7157 12.0003C13.7157 12.155 13.6591 12.289 13.546 12.4021C13.433 12.5152 13.299 12.5717 13.1443 12.5717H4.0014C3.84664 12.5717 3.71271 12.5152 3.59962 12.4021C3.48652 12.289 3.42998 12.155 3.42998 12.0003C3.42998 11.9348 3.45378 11.8411 3.5014 11.719C3.54902 11.597 3.59664 11.4899 3.64426 11.3976C3.69188 11.3053 3.75587 11.1863 3.83623 11.0405C3.91658 10.8946 3.96271 10.8068 3.97462 10.7771L2.39426 3.42885H0.572832C0.41807 3.42885 0.284142 3.3723 0.171047 3.25921C0.0579514 3.14611 0.00140381 3.01218 0.00140381 2.85742C0.00140381 2.70266 0.0579514 2.56873 0.171047 2.45564C0.284142 2.34254 0.41807 2.28599 0.572832 2.28599H2.85855C2.95378 2.28599 3.03861 2.30534 3.11301 2.34403C3.18742 2.38272 3.24545 2.42885 3.28712 2.48242C3.32878 2.53599 3.36748 2.60891 3.40319 2.70117C3.4389 2.79343 3.46271 2.87081 3.47462 2.93331C3.48652 2.99581 3.50289 3.08361 3.52373 3.19671C3.54456 3.3098 3.55795 3.38718 3.5639 3.42885H14.2871C14.4419 3.42885 14.5758 3.4854 14.6889 3.59849C14.802 3.71159 14.8585 3.84552 14.8585 4.00028Z" fill="#252525"/>
</svg>