<svg width="8" height="15" viewBox="0 0 8 15" fill="none" xmlns="http://www.w3.org/2000/svg">
  <path d="M5.41406 6.65283C5.41406 6.65283 5.51172 6.55518 5.70703 6.35986C5.90234 6.16455 6 5.79085 6 5.23877C6 4.68669 5.80469 4.21533 5.41406 3.82471C5.02344 3.43408 4.55208 3.23877 4 3.23877C3.44792 3.23877 2.97656 3.43408 2.58594 3.82471C2.19531 4.21533 2 4.68669 2 5.23877C2 5.79085 2.19531 6.26221 2.58594 6.65283C2.97656 7.04346 3.44792 7.23877 4 7.23877C4.55208 7.23877 5.02344 7.04346 5.41406 6.65283ZM8 5.23877C8 5.80648 7.91406 6.27262 7.74219 6.63721L4.89844 12.6841C4.8151 12.856 4.69141 12.9914 4.52734 13.0903C4.36328 13.1893 4.1875 13.2388 4 13.2388C3.8125 13.2388 3.63672 13.1893 3.47266 13.0903C3.30859 12.9914 3.1875 12.856 3.10938 12.6841L0.257812 6.63721C0.0859375 6.27262 0 5.80648 0 5.23877C0 4.1346 0.390625 3.19189 1.17188 2.41064C1.95312 1.62939 2.89583 1.23877 4 1.23877C5.10417 1.23877 6.04688 1.62939 6.82812 2.41064C7.60938 3.19189 8 4.1346 8 5.23877Z" fill="#FFC925"/>
</svg>