<svg width="11" height="14" viewBox="0 0 11 14" fill="none" xmlns="http://www.w3.org/2000/svg">
  <path d="M10.2172 9.23451C10.2172 9.36509 10.193 9.53557 10.1446 9.74595C10.0962 9.95633 10.0455 10.122 9.99227 10.2429C9.8907 10.4847 9.59569 10.741 9.10722 11.0119C8.65261 11.2585 8.20283 11.3818 7.75789 11.3818C7.62731 11.3818 7.49915 11.3734 7.3734 11.3564C7.24766 11.3395 7.10862 11.3093 6.95627 11.2658C6.80393 11.2222 6.69028 11.1872 6.61531 11.1606C6.54035 11.134 6.40614 11.0844 6.21269 11.0119C6.01924 10.9393 5.90075 10.8958 5.85722 10.8813C5.38326 10.712 4.96009 10.5113 4.58769 10.2792C3.97348 9.89709 3.33509 9.37477 2.67251 8.71219C2.00994 8.04962 1.48762 7.41123 1.10555 6.79701C0.873404 6.42462 0.672698 6.00144 0.503427 5.52748C0.488918 5.48396 0.445391 5.36547 0.372846 5.17201C0.300302 4.97856 0.25073 4.84435 0.22413 4.76939C0.19753 4.69443 0.162467 4.58078 0.11894 4.42843C0.0754133 4.27609 0.0451864 4.13704 0.0282593 4.0113C0.0113322 3.88556 0.00286865 3.75739 0.00286865 3.62681C0.00286865 3.18187 0.126195 2.7321 0.372846 2.27748C0.64368 1.78902 0.900004 1.494 1.14182 1.39244C1.26273 1.33924 1.42837 1.28846 1.63875 1.24009C1.84913 1.19173 2.01961 1.16755 2.15019 1.16755C2.2179 1.16755 2.26868 1.1748 2.30253 1.18931C2.38959 1.21833 2.51775 1.40211 2.68702 1.74065C2.74022 1.83254 2.81276 1.96312 2.90465 2.13239C2.99654 2.30166 3.08118 2.45522 3.15856 2.59305C3.23594 2.73089 3.3109 2.86026 3.38345 2.98117C3.39796 3.00051 3.44028 3.06097 3.5104 3.16253C3.58053 3.26409 3.63252 3.34993 3.66637 3.42006C3.70023 3.49019 3.71715 3.5591 3.71715 3.62681C3.71715 3.72354 3.64824 3.84445 3.5104 3.98954C3.37257 4.13463 3.22264 4.26762 3.06063 4.38853C2.89861 4.50944 2.74868 4.6376 2.61085 4.77302C2.47301 4.90844 2.4041 5.01967 2.4041 5.10672C2.4041 5.15025 2.41619 5.20466 2.44037 5.26995C2.46455 5.33524 2.4851 5.38481 2.50203 5.41867C2.51896 5.45252 2.55281 5.51056 2.60359 5.59277C2.65438 5.67499 2.68218 5.72094 2.68702 5.73061C3.05458 6.39318 3.47534 6.96145 3.9493 7.43541C4.42326 7.90937 4.99152 8.33012 5.6541 8.69768C5.66377 8.70252 5.70971 8.73033 5.79193 8.78111C5.87415 8.83189 5.93218 8.86575 5.96604 8.88267C5.99989 8.8996 6.04946 8.92015 6.11476 8.94434C6.18005 8.96852 6.23445 8.98061 6.27798 8.98061C6.36503 8.98061 6.47627 8.91169 6.61169 8.77386C6.7471 8.63602 6.87526 8.4861 6.99617 8.32408C7.11708 8.16206 7.25008 8.01214 7.39517 7.8743C7.54026 7.73647 7.66117 7.66755 7.75789 7.66755C7.8256 7.66755 7.89452 7.68448 7.96464 7.71833C8.03477 7.75219 8.12061 7.80418 8.22218 7.8743C8.32374 7.94443 8.38419 7.98675 8.40354 8.00126C8.52445 8.0738 8.65382 8.14876 8.79165 8.22614C8.92949 8.30352 9.08304 8.38816 9.25231 8.48005C9.42158 8.57194 9.55216 8.64448 9.64405 8.69768C9.98259 8.86695 10.1664 8.99512 10.1954 9.08217C10.2099 9.11602 10.2172 9.16681 10.2172 9.23451Z" fill="#FFC925"/>
</svg>