<svg xmlns="http://www.w3.org/2000/svg" width="13" height="27" viewBox="0 0 13 27" fill="none">
  <path d="M11 14.1045V17.8545C11 17.9899 10.9505 18.1071 10.8516 18.2061C10.7526 18.305 10.6354 18.3545 10.5 18.3545H7.50001V15.3545H5.50001V18.3545H2.50001C2.3646 18.3545 2.24741 18.305 2.14845 18.2061C2.04949 18.1071 2.00001 17.9899 2.00001 17.8545V14.1045C2.00001 14.0993 2.00132 14.0915 2.00392 14.0811C2.00652 14.0706 2.00783 14.0628 2.00783 14.0576L6.50001 10.3545L10.9922 14.0576C10.9974 14.068 11 14.0837 11 14.1045ZM12.7422 13.5654L12.2578 14.1436C12.2162 14.1904 12.1615 14.2191 12.0938 14.2295H12.0703C12.0026 14.2295 11.9479 14.2113 11.9063 14.1748L6.50001 9.66699L1.09376 14.1748C1.03126 14.2165 0.968764 14.2347 0.906264 14.2295C0.838555 14.2191 0.783868 14.1904 0.742201 14.1436L0.257826 13.5654C0.216159 13.5133 0.19793 13.4521 0.203139 13.3818C0.208347 13.3115 0.236993 13.2555 0.289076 13.2139L5.90626 8.53418C6.07293 8.39876 6.27085 8.33105 6.50001 8.33105C6.72918 8.33105 6.9271 8.39876 7.09376 8.53418L9.00001 10.1279V8.60449C9.00001 8.53158 9.02345 8.47168 9.07033 8.4248C9.1172 8.37793 9.1771 8.35449 9.25001 8.35449H10.75C10.8229 8.35449 10.8828 8.37793 10.9297 8.4248C10.9766 8.47168 11 8.53158 11 8.60449V11.792L12.711 13.2139C12.763 13.2555 12.7917 13.3115 12.7969 13.3818C12.8021 13.4521 12.7839 13.5133 12.7422 13.5654Z" fill="#FFC925"/>
</svg>