<svg xmlns="http://www.w3.org/2000/svg" width="14" height="27" viewBox="0 0 14 27" fill="none">
  <path d="M14 11.9014V18.1045C14 18.4482 13.8776 18.7425 13.6328 18.9873C13.388 19.2321 13.0938 19.3545 12.75 19.3545H1.25C0.90625 19.3545 0.611979 19.2321 0.367188 18.9873C0.122396 18.7425 0 18.4482 0 18.1045V11.9014C0.229167 12.1566 0.492188 12.3831 0.789062 12.5811C2.67448 13.8623 3.96875 14.7607 4.67188 15.2764C4.96875 15.4951 5.20964 15.6657 5.39453 15.7881C5.57943 15.9105 5.82552 16.0355 6.13281 16.1631C6.4401 16.2907 6.72656 16.3545 6.99219 16.3545H7H7.00781C7.27344 16.3545 7.5599 16.2907 7.86719 16.1631C8.17448 16.0355 8.42057 15.9105 8.60547 15.7881C8.79036 15.6657 9.03125 15.4951 9.32812 15.2764C10.2135 14.6357 11.5104 13.7373 13.2188 12.5811C13.5156 12.3779 13.776 12.1514 14 11.9014ZM14 9.60449C14 10.016 13.8724 10.4092 13.6172 10.7842C13.362 11.1592 13.0443 11.4795 12.6641 11.7451C10.7057 13.1045 9.48698 13.9508 9.00781 14.2842C8.95573 14.3206 8.84505 14.4001 8.67578 14.5225C8.50651 14.6449 8.36589 14.7438 8.25391 14.8193C8.14193 14.8949 8.00651 14.9795 7.84766 15.0732C7.6888 15.167 7.53906 15.2373 7.39844 15.2842C7.25781 15.3311 7.1276 15.3545 7.00781 15.3545H7H6.99219C6.8724 15.3545 6.74219 15.3311 6.60156 15.2842C6.46094 15.2373 6.3112 15.167 6.15234 15.0732C5.99349 14.9795 5.85807 14.8949 5.74609 14.8193C5.63411 14.7438 5.49349 14.6449 5.32422 14.5225C5.15495 14.4001 5.04427 14.3206 4.99219 14.2842C4.51823 13.9508 3.83594 13.4756 2.94531 12.8584C2.05469 12.2412 1.52083 11.8701 1.34375 11.7451C1.02083 11.5264 0.716146 11.2256 0.429688 10.8428C0.143229 10.46 0 10.1045 0 9.77637C0 9.37012 0.108073 9.03158 0.324219 8.76074C0.540365 8.48991 0.848958 8.35449 1.25 8.35449H12.75C13.0885 8.35449 13.3815 8.47689 13.6289 8.72168C13.8763 8.96647 14 9.26074 14 9.60449Z" fill="#FFC925"/>
</svg>
