<svg xmlns="http://www.w3.org/2000/svg" width="11" height="27" viewBox="0 0 11 27" fill="none">
  <path d="M11 16.042C11 16.1826 10.974 16.3662 10.9219 16.5928C10.8698 16.8193 10.8151 16.9977 10.7578 17.1279C10.6484 17.3883 10.3307 17.6644 9.80469 17.9561C9.3151 18.2217 8.83073 18.3545 8.35156 18.3545C8.21094 18.3545 8.07292 18.3454 7.9375 18.3271C7.80208 18.3089 7.65234 18.2764 7.48828 18.2295C7.32422 18.1826 7.20182 18.1449 7.12109 18.1162C7.04036 18.0876 6.89583 18.0342 6.6875 17.9561C6.47917 17.8779 6.35156 17.8311 6.30469 17.8154C5.79427 17.6331 5.33854 17.417 4.9375 17.167C4.27604 16.7555 3.58854 16.193 2.875 15.4795C2.16146 14.766 1.59896 14.0785 1.1875 13.417C0.9375 13.016 0.721354 12.5602 0.539062 12.0498C0.523438 12.0029 0.476562 11.8753 0.398438 11.667C0.320312 11.4587 0.266927 11.3141 0.238281 11.2334C0.209635 11.1527 0.171875 11.0303 0.125 10.8662C0.078125 10.7021 0.0455729 10.5524 0.0273438 10.417C0.00911458 10.2816 0 10.1436 0 10.0029C0 9.52376 0.132812 9.03939 0.398438 8.5498C0.690104 8.02376 0.966146 7.70605 1.22656 7.59668C1.35677 7.53939 1.53516 7.4847 1.76172 7.43262C1.98828 7.38053 2.17188 7.35449 2.3125 7.35449C2.38542 7.35449 2.4401 7.3623 2.47656 7.37793C2.57031 7.40918 2.70833 7.6071 2.89062 7.97168C2.94792 8.07064 3.02604 8.21126 3.125 8.39355C3.22396 8.57585 3.3151 8.74121 3.39844 8.88965C3.48177 9.03809 3.5625 9.17741 3.64062 9.30762C3.65625 9.32845 3.70182 9.39355 3.77734 9.50293C3.85286 9.6123 3.90885 9.70475 3.94531 9.78027C3.98177 9.85579 4 9.93001 4 10.0029C4 10.1071 3.92578 10.2373 3.77734 10.3936C3.62891 10.5498 3.46745 10.693 3.29297 10.8232C3.11849 10.9535 2.95703 11.0915 2.80859 11.2373C2.66016 11.3831 2.58594 11.5029 2.58594 11.5967C2.58594 11.6436 2.59896 11.7021 2.625 11.7725C2.65104 11.8428 2.67318 11.8962 2.69141 11.9326C2.70964 11.9691 2.74609 12.0316 2.80078 12.1201C2.85547 12.2087 2.88542 12.2581 2.89062 12.2686C3.28646 12.9821 3.73958 13.5941 4.25 14.1045C4.76042 14.6149 5.3724 15.068 6.08594 15.4639C6.09635 15.4691 6.14583 15.499 6.23438 15.5537C6.32292 15.6084 6.38542 15.6449 6.42188 15.6631C6.45833 15.6813 6.51172 15.7035 6.58203 15.7295C6.65234 15.7555 6.71094 15.7686 6.75781 15.7686C6.85156 15.7686 6.97135 15.6943 7.11719 15.5459C7.26302 15.3975 7.40104 15.236 7.53125 15.0615C7.66146 14.887 7.80469 14.7256 7.96094 14.5771C8.11719 14.4287 8.2474 14.3545 8.35156 14.3545C8.42448 14.3545 8.4987 14.3727 8.57422 14.4092C8.64974 14.4456 8.74219 14.5016 8.85156 14.5771C8.96094 14.6527 9.02604 14.6982 9.04688 14.7139C9.17708 14.792 9.31641 14.8727 9.46484 14.9561C9.61328 15.0394 9.77865 15.1305 9.96094 15.2295C10.1432 15.3285 10.2839 15.4066 10.3828 15.4639C10.7474 15.6462 10.9453 15.7842 10.9766 15.8779C10.9922 15.9144 11 15.9691 11 16.042Z" fill="#FFC925"/>
</svg>